<svg width="368" height="339" viewBox="0 0 368 339" fill="none" xmlns="http://www.w3.org/2000/svg">
<path fill-rule="evenodd" clip-rule="evenodd" d="M176.42 49.1293C326.157 45.213 340.452 155.303 309.016 156.197C248.265 157.926 244.268 191.299 204.234 228.259C139.574 287.959 63.4835 291.367 68.0231 135.734C69.9314 70.4157 115.663 50.718 176.42 49.1293Z" fill="#F5F2FD"/>
<path fill-rule="evenodd" clip-rule="evenodd" d="M280.336 170.761C323.603 161.099 331.928 180.548 322.847 182.589C305.298 186.535 307.689 192.633 295.461 202.388C277.615 216.624 257.025 211.05 252.195 193.204C248.978 181.314 262.78 174.681 280.336 170.761Z" fill="#F5F2FD"/>
<path d="M265.399 214.414C262.54 213.587 259.979 212.782 257.32 211.673C253.86 210.313 250.817 208.043 247.438 206.522C244.221 204.976 240.708 204.356 237.357 203.196C235.52 202.641 233.537 201.631 231.488 201.03C232.219 200.823 232.981 200.6 233.734 200.401C234.203 200.293 234.68 200.16 235.125 200.044C235.792 200.378 236.476 200.678 237.173 200.942C238.71 201.555 240.287 202.128 241.9 202.524C245.611 203.376 249.39 204.034 253.236 204.203C257.292 204.281 261.14 203.126 265.005 202.949C266.288 202.906 267.602 203.063 268.806 203.102C269.012 203.092 269.277 202.913 269.253 202.689C269.08 202.385 268.655 202.292 268.372 202.086C265.631 200.407 262.624 199.205 259.396 199.007C255.348 198.688 251.348 199.548 247.532 198.633C246.522 198.445 245.526 198.19 244.55 197.871C245.973 197.201 247.405 196.507 248.786 195.741C251.114 194.437 253.261 192.774 255.466 191.239C258.67 188.941 262.065 186.898 264.984 184.177C265.415 183.812 266.461 182.768 265.306 182.882C263.813 183.312 262.347 183.886 260.834 184.228C251.877 185.51 243.611 189.762 237.359 196.302C236.476 197.24 235.631 198.218 234.927 199.3C234.877 199.36 234.836 199.428 234.806 199.501C233.353 199.891 231.937 200.32 230.489 200.765C230.436 200.774 230.405 200.79 230.351 200.799C229.812 200.964 229.274 201.129 228.757 201.301C229.141 200.704 229.551 200.035 229.874 199.687C230.879 198.467 231.843 197.881 233.01 196.852C235.849 194.292 238.339 191.125 239.708 187.462C240.974 184.168 242.364 181.324 244.367 178.394C245.322 175.561 234.339 186.415 233.814 186.909C231.327 189.185 229.715 192.305 228.4 195.446C227.778 197.096 227.279 198.978 226.528 200.341C226.201 201.066 225.687 201.672 225.301 202.35C225.299 202.387 225.303 202.425 225.312 202.462C224.164 202.848 223.022 203.292 221.888 203.71C221.857 203.727 221.835 203.719 221.804 203.735C221.279 203.932 220.755 204.129 220.244 204.358C220.269 204.286 220.272 204.205 220.297 204.133C220.399 203.726 220.552 203.334 220.751 202.965C223.07 199.198 226.023 195.867 228.528 192.218C229.852 190.297 231.17 188.32 232.029 186.13C232.657 184.535 232.963 182.478 233.629 181.14C234.452 179.641 235.44 178.252 236.442 176.895C236.579 176.645 237.563 175.634 237.817 175.046C237.946 174.09 236.619 175.065 236.242 175.204C232.81 177.207 229.775 179.969 227.335 183.208C225.712 185.188 224.14 187.239 223.047 189.592C221.041 193.63 220.249 198.628 218.403 202.424C217.853 203.526 217.179 204.563 216.396 205.514C216.23 205.7 216.279 205.852 216.415 205.899C214.954 206.53 213.53 207.2 212.098 207.894C212.463 205.667 213.814 203.376 215.069 201.216C216.548 198.699 217.84 196.064 219.11 193.421C219.951 191.576 220.733 189.684 221.144 187.689C221.68 184.603 221.749 181.545 222.461 178.682C222.697 177.756 223.002 176.849 223.374 175.969C223.516 175.559 223.811 175.147 223.71 174.707C223.61 174.483 223.302 174.566 223.13 174.695C222.706 175.116 222.429 175.696 222.041 176.157C220.82 177.708 219.189 179.929 217.944 181.769C215.386 185.643 213.056 189.811 211.971 194.411C211.166 197.837 211.174 201.625 210.498 204.825C210.275 206.127 210.067 207.461 209.451 208.654C209.435 208.702 209.379 208.791 209.387 208.767C209.337 208.911 209.179 209.073 209.228 209.225C209.234 209.237 209.242 209.248 209.252 209.256C209.263 209.265 209.275 209.27 209.288 209.273C207.374 210.26 205.503 211.343 203.647 212.458C203.671 212.169 203.627 211.856 203.704 211.559C203.752 210.981 204.016 210.071 204.261 209.291C204.913 207.408 205.902 205.722 206.641 203.733C208.239 200.068 208.345 196.023 208.707 192.119C209.059 187.806 208.707 183.548 208.668 179.262C208.685 178.54 208.74 177.819 208.833 177.102L208.858 177.03C209.021 176.305 209.148 175.573 209.237 174.835C209.292 174.53 208.93 174.405 208.719 174.575C208.409 174.738 208.45 175.131 208.372 175.429C208.257 175.983 208.194 176.53 208.132 177.075C207.663 179.238 206.937 181.556 206.232 183.664C204.901 187.07 203.072 190.304 202.209 193.898C201.447 196.907 201.672 200.067 202.13 203.064C202.426 204.627 202.788 205.78 202.678 207.418C202.677 208.959 202.568 210.3 202.207 211.635C202.038 212.198 201.831 212.722 201.616 213.269C201.605 213.303 201.602 213.338 201.608 213.373C201.613 213.408 201.627 213.441 201.648 213.47C201.673 213.492 201.701 213.508 201.733 213.519C201.764 213.53 201.797 213.534 201.83 213.532C200.517 214.322 199.226 215.119 197.928 215.941C198.212 215.488 198.454 215.011 198.65 214.514C199.51 212.54 199.774 210.387 200.051 208.266C200.414 205.607 200.488 202.901 199.972 200.29C199.588 198.102 198.834 196.03 198.335 193.883C197.786 191.365 197.511 188.795 197.514 186.217C197.519 186.077 197.534 185.938 197.557 185.8C197.637 185.422 197.708 185.068 197.757 184.707C197.187 184.157 196.939 184.802 196.837 185.902C196.324 188.482 195.364 191.476 195.106 194.199C194.818 198.182 195.276 202.207 196.129 206.044C196.589 208.231 197.651 210.221 197.687 212.315C197.71 213.567 197.375 214.533 196.978 215.828C196.942 216.005 196.768 216.215 196.908 216.399L196.953 216.415C196.932 216.463 196.923 216.515 196.925 216.567C191.036 220.397 185.398 224.745 180.408 229.859C179.792 230.539 179.146 231.234 178.568 231.953C178.445 232.235 178.785 232.353 179.001 232.238C179.738 231.574 180.322 230.694 181.045 229.998C186.679 224.269 193.069 219.505 199.931 215.282C202.119 217.093 203.762 219.528 205.871 221.42C209.966 224.973 215.45 225.979 220.25 228.154C220.734 228.294 221.505 228.777 221.852 228.14C221.866 228.098 221.867 228.052 221.855 228.01C221.843 227.967 221.818 227.929 221.783 227.9C221.477 227.686 221.146 227.544 220.823 227.379C218.914 226.447 217.5 225.255 215.961 223.695C215.421 223.13 214.873 222.589 214.317 222.072C215.102 222.587 215.927 223.062 216.752 223.536C219.297 225.12 222.461 226.161 225.062 226.926C227.655 227.916 230.048 229.367 232.125 231.209C232.604 231.51 233.045 232.068 233.608 232.127C234.499 231.895 233.733 231.251 233.401 230.893C230.621 228.228 228.221 225.126 225.171 222.8C223.402 221.538 221.727 220.661 220.144 219.302C218.428 218.033 216.967 216.392 215.156 215.251C212.826 213.85 210.081 213.576 207.81 212.519C207.155 212.212 206.67 211.855 206.185 211.498C207.893 210.52 209.584 209.591 211.334 208.71L212.56 209.783C214.789 211.988 217.375 213.748 220.05 215.323C222.134 216.557 224.446 217.276 226.417 218.688C230.729 221.614 234.258 226.512 238.844 229.451C240.004 230.204 241.108 231.045 242.284 231.75C242.765 231.971 243.443 232.503 243.909 231.961C244.097 231.566 243.593 231.338 243.394 231.107C242.727 230.47 242.037 229.826 241.448 229.108C238.426 225.386 235.696 221.331 231.965 218.337C228.015 215.023 223.86 211.936 219.22 209.736C217.506 208.899 215.775 207.894 213.816 207.839C213.592 207.84 213.368 207.826 213.146 207.796C214.795 206.988 216.496 206.251 218.233 205.554C218.766 205.334 219.29 205.136 219.823 204.915C220.809 205.878 221.423 207.253 222.588 208.062C226.46 210.943 230.749 213.13 235.247 214.714C242.316 217.295 249.264 220.592 256.865 221.194C257.49 221.221 258.138 221.473 258.762 221.283C259.64 220.722 258.085 220.454 257.739 220.28C256.457 219.809 255.549 219.576 254.223 219.009C252.767 218.235 251.375 217.348 249.952 216.477C246.231 214.188 242.52 211.796 238.465 210.176C234.227 208.575 230.106 207.662 226.086 205.649C224.882 205.097 223.718 204.505 222.579 203.84C224.623 203.061 226.651 202.33 228.731 201.67C228.8 201.91 229.199 202.076 229.361 202.267C230.811 203.499 232.598 204.198 234.233 205.115C236.795 206.651 239.211 208.461 241.911 209.746C246.121 211.501 250.203 212.968 254.743 213.917C257.592 214.551 260.494 215.177 263.447 215.144C263.937 215.341 266.177 215.17 265.399 214.414ZM204.735 212.537C204.75 212.569 204.772 212.577 204.786 212.609C204.801 212.641 205.196 213.184 205.057 213C205.764 214.327 206.736 215.474 207.725 216.573C207.902 216.797 208.086 216.996 208.271 217.195C206.552 216.097 204.664 215.289 202.684 214.802C202.245 214.677 201.897 214.584 201.558 214.466C202.6 213.799 203.656 213.164 204.735 212.537Z" fill="url(#paint0_linear_9_6120)"/>
<path d="M236.459 151.208C233.667 153.247 231.116 155.045 228.262 156.794C224.612 159.106 220.594 160.674 216.885 162.848C213.278 164.876 210.144 167.553 206.726 169.86C204.914 171.16 202.648 172.385 200.64 173.843C201.04 173.14 201.451 172.404 201.874 171.686C202.148 171.246 202.411 170.789 202.662 170.365C203.425 169.951 204.165 169.503 204.892 169.037C206.521 168.013 208.149 166.939 209.672 165.758C213.131 163.015 216.496 160.132 219.545 156.979C222.684 153.612 224.738 149.883 227.541 146.564C228.483 145.47 229.6 144.436 230.543 143.443C230.692 143.265 230.759 142.966 230.572 142.888C230.212 142.903 229.82 143.218 229.45 143.367C226.106 144.938 222.918 146.938 220.318 149.559C217.003 152.816 214.612 156.543 211.025 159.347C210.218 160.045 209.145 160.845 208.187 161.518C208.765 160.033 209.331 158.531 209.804 157.041C210.592 154.523 210.972 152.001 211.493 149.486C212.199 145.801 213.242 142.068 213.414 138.44C213.467 137.92 213.476 136.59 212.685 137.608C211.874 139.047 211.192 140.526 210.299 141.943C204.602 149.786 201.357 158.672 201.546 166.868C201.581 168.015 201.674 169.149 201.952 170.208C201.959 170.274 201.98 170.338 202.012 170.396C201.201 171.784 200.448 173.158 199.683 174.565C199.649 174.614 199.637 174.647 199.603 174.695C199.318 175.219 199.033 175.743 198.771 176.25C198.613 175.669 198.421 175.036 198.405 174.613C198.251 173.241 198.543 172.179 198.656 170.753C198.887 167.262 198.398 163.8 196.685 161.063C195.171 158.572 194.088 156.173 193.407 153.222C192.003 151.192 191.82 165.111 191.792 165.767C191.614 168.839 192.735 171.544 194.097 174.01C194.866 175.247 195.901 176.482 196.356 177.703C196.652 178.292 196.718 178.986 196.933 179.604C196.98 179.623 196.992 179.64 197.027 179.642C196.445 180.773 195.911 181.923 195.364 183.056C195.353 183.089 195.33 183.104 195.318 183.137C195.068 183.663 194.818 184.188 194.602 184.715C194.567 184.663 194.508 184.626 194.473 184.574C194.245 184.311 194.065 184.011 193.941 183.686C192.869 180.108 192.608 176.186 191.768 172.502C191.329 170.559 190.844 168.595 189.85 166.925C189.129 165.707 187.815 164.558 187.315 163.419C186.813 162.078 186.519 160.647 186.26 159.218C186.177 158.995 186.164 157.731 185.915 157.263C185.293 156.741 185.018 158.275 184.836 158.653C183.735 162.4 183.506 166.143 184.088 169.594C184.344 171.814 184.692 174.023 185.63 175.96C187.142 179.394 190.298 182.226 191.749 185.42C192.166 186.383 192.435 187.402 192.548 188.445C192.562 188.665 192.714 188.69 192.852 188.596C192.216 190.094 191.638 191.579 191.072 193.081C189.676 191.81 188.98 189.683 188.308 187.693C187.54 185.361 186.541 183.134 185.518 180.923C184.77 179.417 183.941 177.941 182.755 176.731C180.841 174.943 178.595 173.558 176.983 171.719C176.467 171.121 176.017 170.47 175.638 169.777C175.437 169.48 175.352 169.054 174.944 168.948C174.699 168.935 174.528 169.228 174.495 169.429C174.489 169.967 174.715 170.451 174.767 170.976C175.005 172.673 175.436 175.004 175.873 176.847C176.843 180.672 178.207 184.435 180.841 187.34C182.805 189.501 185.658 191.137 187.55 193.093C188.36 193.844 189.205 194.597 189.634 195.631C189.657 195.666 189.681 195.751 189.67 195.734C189.741 195.839 189.743 196.041 189.894 196.066C189.924 196.066 189.952 196.056 189.975 196.037C189.264 198.07 188.657 200.109 188.085 202.149C187.886 202.004 187.617 201.905 187.452 201.711C187.054 201.42 186.571 200.804 186.17 200.26C185.249 198.897 184.734 197.336 183.8 195.854C182.258 192.924 179.298 191.079 176.639 189.082C173.663 186.917 170.195 185.365 166.944 183.538C166.42 183.215 165.919 182.856 165.444 182.463L165.409 182.411C164.985 181.957 164.53 181.533 164.047 181.141C163.86 180.963 163.49 181.212 163.458 181.463C163.345 181.794 163.672 181.93 163.837 182.124C164.169 182.451 164.521 182.757 164.892 183.04C166.162 184.372 167.352 185.986 168.402 187.491C169.952 190.085 170.994 193.021 173.04 195.305C174.722 197.249 177.269 198.431 179.871 199.346C181.27 199.776 182.412 199.972 183.559 200.776C184.717 201.445 185.643 202.118 186.372 203C186.655 203.386 186.916 203.788 187.152 204.204C187.173 204.229 187.2 204.248 187.231 204.259C187.262 204.269 187.295 204.271 187.327 204.264C187.399 204.241 187.463 204.198 187.512 204.139C187.108 205.583 186.727 207.011 186.358 208.456C186.237 208.027 186.06 207.616 185.834 207.232C185.004 205.654 183.585 204.499 182.202 203.347C180.478 201.889 178.5 200.653 176.145 199.953C174.208 199.326 172.078 199.059 170.085 198.547C167.852 197.946 165.706 197.06 163.699 195.911C163.599 195.846 163.505 195.774 163.417 195.694C163.205 195.468 162.982 195.254 162.748 195.051C161.902 195.291 162.198 195.779 162.947 196.342C164.498 197.891 166.019 199.994 167.87 201.392C170.646 203.361 174.02 204.723 177.552 205.672C179.546 206.235 181.848 206.208 183.449 207.086C184.408 207.609 184.88 208.309 185.552 209.204C185.658 209.311 185.684 209.548 185.927 209.511L185.973 209.48C185.994 209.518 186.027 209.55 186.067 209.569C184.473 216.169 183.459 222.784 183.513 229.187C183.557 229.998 183.589 230.842 183.69 231.639C183.808 231.865 184.155 231.631 184.234 231.399C184.294 230.493 184.076 229.622 184.102 228.714C184.074 221.504 185.346 214.077 187.384 206.49C190.408 205.442 193.485 205.12 196.51 204.172C202.291 202.279 207.213 198.115 212.494 195.033C212.967 194.688 213.916 194.251 213.701 193.683C213.672 193.652 213.634 193.63 213.592 193.622C213.55 193.614 213.507 193.619 213.468 193.637C213.074 193.801 212.716 194.018 212.346 194.217C210.196 195.414 208.227 196.082 205.885 196.697C205.05 196.904 204.227 197.129 203.415 197.371C204.399 196.936 205.382 196.451 206.365 195.965C209.489 194.517 212.675 192.315 215.226 190.465C217.897 188.74 220.783 187.373 223.81 186.399C224.4 186.128 225.155 186 225.627 185.554C226.13 184.705 225.064 185.069 224.542 185.192C220.427 186.367 216.272 187.035 212.207 188.583C209.915 189.52 207.984 190.544 205.759 191.283C203.501 192.171 201.158 192.684 198.925 193.709C196.102 195.055 193.811 197.238 191.291 198.685C190.648 199.042 189.979 199.349 189.29 199.604C189.852 197.748 190.438 195.927 191.105 194.077L192.843 193.514C196.193 192.601 199.48 191.196 202.696 189.635C205.206 188.423 207.503 186.796 210.062 185.756C215.536 183.408 221.899 182.573 227.592 180.001C229.039 179.355 230.509 178.795 231.932 178.114C232.464 177.806 233.379 177.468 233.326 176.842C233.172 176.513 232.617 176.837 232.292 176.904C231.307 177.187 230.298 177.486 229.312 177.669C224.218 178.589 219.096 179.12 214.011 180.95C208.52 182.826 203.043 184.971 197.865 187.908C195.935 188.983 193.864 189.999 192.335 191.617C192.164 191.807 191.983 191.989 191.794 192.161C192.439 190.427 193.177 188.682 193.972 186.923C194.211 186.38 194.461 185.854 194.7 185.311C196.172 184.902 197.673 184.984 199.166 184.357C204.272 182.36 209.174 179.711 213.781 176.626C221.091 171.817 228.847 167.42 235.073 161.306C235.568 160.794 236.249 160.359 236.58 159.754C236.826 158.773 235.443 159.962 235.05 160.176C233.722 161.048 232.857 161.708 231.424 162.574C229.736 163.459 228.012 164.242 226.276 165.057C221.729 167.186 217.112 169.26 212.815 171.959C208.392 174.818 204.575 177.879 200.009 180.377C198.68 181.148 197.35 181.867 195.985 182.534C196.952 180.481 197.943 178.463 199.026 176.433C199.259 176.479 199.687 176.217 199.954 176.164C201.981 175.482 203.864 174.287 205.796 173.313C208.896 171.831 212.092 170.589 215.109 168.883C219.626 166.112 223.829 163.325 227.991 159.929C230.631 157.815 233.307 155.652 235.525 153.162C236.046 152.836 237.619 150.883 236.459 151.208ZM188.971 201.272C189.006 201.274 189.029 201.258 189.064 201.26C189.099 201.262 189.807 201.165 189.564 201.203C191.098 201.184 192.699 200.867 194.277 200.515C194.578 200.464 194.868 200.395 195.158 200.327C193.009 201.303 190.981 202.528 189.115 203.974C188.688 204.288 188.354 204.54 188.008 204.773C188.298 203.61 188.623 202.449 188.971 201.272Z" fill="url(#paint1_linear_9_6120)"/>
<path d="M66.0948 215.982C65.6507 213.986 66.4391 211.694 67.8992 210.319L68.3329 209.954C67.9787 209.709 67.5713 209.459 67.2794 209.112C66.7399 208.529 66.5139 207.732 66.5009 206.953C66.5196 206.378 66.7379 205.828 67.1183 205.397C67.4456 205.023 67.8992 204.74 68.2995 204.453C68.9404 203.865 69.7759 203.508 70.5896 203.713C70.9953 202.434 72.0807 201.669 73.8815 201.933C75.2855 202.134 76.6691 203.193 76.6464 204.693C76.7081 205.529 76.306 206.46 76.5698 207.126C76.8734 207.957 78.0367 208.46 78.4726 207.452C78.8369 206.652 78.5094 205.792 77.9011 205.069C76.6807 203.676 74.9673 202.401 75.5776 200.309C76.5843 197.044 82.034 196.362 83.5236 199.602C83.5907 199.734 83.6417 199.873 83.6754 200.017C83.7044 199.993 83.7044 199.993 83.7576 199.998C83.7499 199.72 83.7829 199.443 83.8556 199.175C84.0464 198.521 84.3632 197.958 84.4139 197.373C84.4889 196.816 84.3082 196.425 83.9678 196.02C83.3264 195.375 82.1768 194.712 81.9785 193.595C81.8845 193.131 81.9885 192.55 82.3843 192.317C82.751 192.107 83.3899 192.162 83.4791 192.68C83.5093 192.95 83.3023 193.174 83.0801 193.262C82.9689 193.306 82.7607 193.234 82.7745 193.074C82.808 192.997 82.9191 192.953 82.948 192.929L83.0058 192.88C83.1689 192.545 82.9165 192.363 82.603 192.577C82.131 193.072 82.3914 194.087 83.0089 194.704C83.3493 195.109 83.9895 195.459 84.3739 195.975C84.6611 196.376 84.8859 196.878 84.8155 197.381C84.7557 198.073 84.2849 198.864 84.2099 199.421C84.202 199.573 84.18 199.723 84.1441 199.871C84.4183 199.765 84.7037 199.691 84.9947 199.65C86.3152 199.576 87.702 200.286 88.3505 201.469C88.7082 202.068 88.9598 202.725 89.0943 203.411C89.7713 203.335 90.5397 203.133 91.2515 203.275C91.3048 203.28 91.3823 203.313 91.4355 203.318C91.3429 203.149 91.2745 203.009 91.1819 202.84C89.2763 198.518 88.2594 193.844 86.2717 189.542C86.0713 189.069 85.8419 188.62 85.6173 188.118C85.5594 188.166 85.4726 188.239 85.468 188.292C84.996 188.788 84.5388 189.419 83.8726 189.683C83.5311 189.803 83.1644 189.833 82.808 189.769C82.4517 189.705 82.118 189.55 81.8394 189.319C81.4898 189.021 81.2801 188.654 80.9883 188.307C80.5992 187.844 80.0412 187.474 79.5029 187.186C78.7031 186.822 77.7632 186.526 77.2949 185.735C76.9394 185.194 76.7529 184.561 76.6438 183.962C74.9913 184.463 73.1824 184.601 71.7655 183.62C71.6544 183.664 71.5144 183.733 71.5098 183.786C70.8454 184.213 70.1403 184.574 69.4048 184.863C66.7873 185.978 63.8645 184.732 63.1702 181.91C63.1353 181.692 63.0761 181.446 63.0414 181.228C61.7834 181.2 61.2274 180.186 60.8739 179.003C60.7163 178.345 60.7473 177.678 60.6185 176.996C60.5687 176.643 60.4701 176.232 60.3761 175.768C59.5374 176.473 58.5808 177.919 57.3629 177.116C55.4794 175.639 55.3113 172.621 56.7065 170.757C56.4224 170.669 56.1328 170.599 55.8396 170.548C55.578 170.472 54.6302 170.577 54.1313 170.454C52.9936 170.275 53.1285 169.026 53.5945 168.288C54.389 166.883 55.6018 165.76 57.0642 165.075C57.1464 165.056 57.2042 165.007 57.2864 164.987C57.218 164.847 57.1543 164.654 57.1102 164.543C57.0116 164.134 57.0488 163.704 57.2163 163.319C58.1945 161.311 61.0803 161.749 63.1043 162.219C63.0115 161.673 63.0403 161.112 63.1885 160.578C63.3367 160.044 63.6007 159.549 63.9618 159.129C65.1418 157.89 67.0869 156.798 68.7261 157.69C69.4068 157.267 70.2625 157.287 71.0187 157.54C71.6091 157.728 72.1646 158.011 72.6625 158.38C72.7644 158.442 72.8373 158.529 72.9392 158.591C72.5279 157.456 72.1698 156.326 71.7296 155.215C71.6187 155.201 71.5178 155.144 71.4482 155.057C71.0336 154.27 70.5394 154.093 69.8217 153.709C68.5321 153.115 67.5055 152.892 66.0424 152.443C64.6036 152.024 63.1984 151.526 61.7978 150.976C61.2344 151.598 60.6073 152.026 60.0531 152.542C59.5812 153.037 59.4147 153.72 59.1423 154.394C58.7109 155.349 58.091 156.314 57.1156 156.739C56.4187 157.052 55.6451 157.153 54.8912 157.029C54.838 157.025 54.8136 156.996 54.7847 157.02C54.7785 157.078 54.7551 157.132 54.7177 157.175C54.2956 158.024 53.7138 158.859 52.8493 159.24C52.0914 159.63 50.8577 159.631 50.2294 159.764C49.1898 159.996 48.5157 160.662 47.4383 161.024C46.4964 161.372 45.3738 161.328 44.5102 160.771C43.7195 160.3 43.299 159.271 43.5902 158.385C43.7063 158.051 43.8784 157.74 44.099 157.464C43.7927 157.235 43.5096 156.977 43.2538 156.693C42.4909 155.903 42.3214 154.762 43.0432 153.859C43.3417 153.509 43.9005 152.941 44.0346 152.631C44.5921 151.767 44.2294 150.689 44.4281 149.634C44.7747 148.108 45.9501 146.923 47.3456 146.293C46.7607 145.303 47.2352 144.164 47.7147 143.267C47.983 142.647 47.9561 142.028 47.663 141.385C47.3167 140.739 47.0388 140.232 47.4865 139.707C47.2827 139.583 47.1079 139.433 46.8798 139.279C46.1714 138.789 45.693 137.809 46.0329 136.98C46.2387 136.462 46.6725 136.097 47.0531 135.727C47.4958 135.217 47.8145 134.611 47.9841 133.958C48.1505 133.275 48.244 132.505 48.783 131.854C50.1458 130.363 53.0123 129.78 54.418 131.511C55.0699 132.345 55.0323 133.709 56.0543 133.985C56.1628 134.003 56.274 133.995 56.3784 133.96C55.5608 132.87 55.1147 131.517 53.9942 130.83C53.1549 130.302 51.9961 129.745 51.3291 128.776C50.9782 128.182 50.8101 127.336 51.1605 126.696C51.4727 126.187 52.0571 125.942 52.5928 125.64L52.6796 125.567C52.3589 125.244 52.0382 124.922 51.7418 124.628L51.7129 124.652C51.4515 124.834 51.1302 124.91 50.815 124.863C50.4999 124.815 50.2148 124.649 50.0184 124.398C49.7752 124.109 49.6536 123.964 49.4013 123.782C49.3425 123.734 49.2687 123.709 49.193 123.71C48.8203 123.678 48.5159 123.785 48.0614 123.773C46.6968 123.735 46.3907 122.314 46.9377 121.262C47.1297 120.903 47.4189 120.66 47.7325 120.446C47.5136 120.185 47.2658 119.949 47.0471 119.689C46.9892 119.738 46.8781 119.782 46.8203 119.83C46.1353 120.308 45.9169 121.281 45.7275 122.23C45.5427 123.126 45.0292 124.101 44.0919 124.395C42.8213 124.821 41.4299 124.165 40.6321 123.157C40.1017 122.467 39.7936 121.69 39.0226 121.301C38.7703 121.118 37.9323 120.885 37.5247 120.635C37.0589 120.374 36.7044 119.953 36.5278 119.449C36.4369 119.197 36.3963 118.929 36.4082 118.661L36.3503 118.71C35.9784 119.132 35.7297 119.649 35.6311 120.203C35.5515 120.813 35.8202 121.427 36.0785 121.851C36.522 122.613 37.4506 123.659 36.7869 124.514C36.4259 124.965 35.8403 124.914 35.3276 124.95C35.2987 124.975 35.3276 124.95 35.3808 124.955C34.7663 124.929 34.2502 125.313 34.1848 125.763C34.1236 126.16 34.6318 126.177 35.0032 125.915L35.1188 125.817C35.1964 125.851 34.9591 125.804 34.9348 125.775C34.7843 125.654 34.9578 125.508 35.1175 125.522C35.3595 125.516 35.694 125.679 35.5356 125.961C35.3482 126.266 34.9617 126.394 34.6376 126.419C33.6122 126.492 33.5309 125.573 34.2493 125.018C34.7989 124.556 35.7237 124.717 36.1056 124.642C36.8497 124.412 36.6375 123.455 36.2577 122.885C35.615 121.944 34.8842 120.782 35.3872 119.618C35.5884 119.153 35.8231 118.61 36.301 118.356C36.2897 118.339 36.2747 118.324 36.2571 118.314C36.2395 118.303 36.2197 118.296 36.1992 118.294C35.8449 118.049 35.6944 117.928 35.3309 117.79C34.531 117.425 33.1356 118.056 31.867 117.839C30.5649 117.699 29.3646 116.388 29.7213 115.051C29.9836 114.189 30.7357 113.556 31.5225 113.142C30.5374 112.44 29.2214 112.46 28.1771 111.511C27.4385 110.75 28.7623 110.328 29.2935 110.079C29.7134 109.874 30.5963 109.28 31.293 109.287C31.3751 109.267 31.4527 109.3 31.5349 109.281L31.5106 109.252C31.456 108.952 31.435 108.575 31.6467 108.298C32.527 107.114 35.6255 107.57 37.0135 108.575L36.9892 108.546C36.5971 107.815 36.4802 106.967 36.6595 106.157C36.9449 105.385 37.4727 104.725 38.1641 104.277C38.8555 103.83 39.6733 103.618 40.4951 103.673L40.5484 103.678C40.2788 103.464 40.021 103.236 39.7761 102.994C39.358 102.621 38.9008 102.293 38.4124 102.018C36.749 101.096 34.7686 100.737 33.2635 99.5341C32.9139 99.2357 32.4321 98.604 32.8707 98.186C33.242 97.9231 33.7409 98.0467 34.1669 98.0836C35.0384 98.2395 36.0835 98.2492 36.8854 97.9703C37.8471 97.7049 38.7785 97.1686 39.8144 97.2852C39.9233 97.194 40.0146 97.0837 40.084 96.9598C41.1328 95.6828 42.8888 95.5397 44.4511 95.4602C45.5297 95.3926 46.4092 95.1474 47.2539 94.6837C49.0833 93.6888 50.7885 91.959 52.9898 91.935C53.4803 91.9343 53.9635 92.0538 54.3972 92.283C54.8308 92.5122 55.2018 92.8442 55.4775 93.2499C56.1445 94.2195 55.9375 95.6766 54.7495 96.0835C53.3192 96.496 52.6194 94.6654 51.4375 94.3754C51.3068 94.3372 50.9098 94.276 50.7165 94.3398C50.4609 94.4305 50.2226 94.5641 50.0119 94.7347C49.7226 94.9779 49.4819 95.2789 49.173 95.4398C49.246 95.5267 49.29 95.6377 49.1651 95.8415C48.7463 96.3416 48.0207 96.3593 47.4849 96.6616C46.8139 96.9789 46.0237 97.7419 45.4465 98.5234C44.9317 99.2029 44.5063 100.4 44.0309 101.244C43.6422 101.958 43.1035 102.579 42.4519 103.065C42.33 103.159 42.1971 103.238 42.0563 103.299C42.0588 103.889 42.0903 104.455 42.0975 104.992C42.1264 104.968 42.1796 104.972 42.2085 104.948C42.4551 104.863 42.6902 104.749 42.9085 104.606C43.5893 104.182 44.1813 103.536 44.9739 103.364C45.438 103.27 45.9415 103.34 46.3201 103.614C46.6743 103.859 46.9858 104.289 47.0022 104.719C47.0974 105.478 46.6358 106.163 46.2322 106.798C46.0402 107.157 45.9015 107.521 45.9606 107.767C46.038 107.962 46.1878 108.119 46.3786 108.206C46.6934 108.287 47.051 108.183 47.5683 108.094C47.6745 108.07 47.7837 108.062 47.8924 108.068L47.9108 107.856C47.9543 106.733 48.778 105.892 49.9006 105.936C52.2419 105.844 53.9563 109.586 50.9636 110.078C50.5284 110.147 50.0401 110.212 49.6141 110.175C49.6583 110.462 49.687 110.751 49.7002 111.041C49.8617 111.125 50.0065 111.237 50.1273 111.373C50.521 111.783 50.5525 112.348 50.5064 112.881C50.4414 113.645 50.0818 114.355 49.5036 114.859C48.8383 115.418 48.0592 115.431 47.5782 116.033C47.3712 116.257 47.3054 116.707 47.3599 117.007C47.4584 117.417 47.6345 117.862 47.6509 118.292C47.6716 118.57 47.6383 118.85 47.5528 119.115L48.2824 119.983L48.3691 119.91C48.9248 119.537 49.4608 119.136 49.975 118.708C50.9962 117.75 51.6454 116.761 52.2106 115.495C52.3447 115.185 52.4788 114.875 52.5841 114.589C51.4768 112.509 53.5736 111.832 53.4581 109.757C53.4377 109.32 53.3857 108.885 53.3024 108.456C52.9896 108.046 52.7996 107.555 52.7545 107.041C52.7276 106.422 52.8848 105.845 52.689 105.319C52.5221 104.768 52.1909 104.256 52.2416 103.671C52.2621 102.814 53.2628 102.713 53.9125 102.957C55.1672 103.334 56.1872 104.254 56.874 105.305C57.3221 106.015 57.6303 106.792 57.6919 107.629C57.6873 107.682 57.7116 107.711 57.6827 107.736C57.9896 107.676 58.287 107.576 58.5669 107.437C58.62 107.441 59.1072 107.081 59.3489 107.075C59.7175 107.039 60.0876 107.128 60.3999 107.327C61.1767 107.958 61.4086 108.997 61.814 109.89C62.4928 111.344 63.1623 112.903 62.9373 114.573C62.9235 114.733 62.8853 114.864 62.8715 115.024C63.2923 115.002 63.7139 115.047 64.1203 115.158C64.6922 115.369 65.2594 115.633 65.6485 116.095C65.8101 116.361 65.9006 116.664 65.9112 116.975C65.9219 117.286 65.8523 117.595 65.7093 117.871C65.2919 118.666 64.6207 118.984 64.0862 119.581C63.3829 120.271 63.4123 121.48 62.7969 122.393C62.3645 123.053 61.8299 123.65 61.1496 124.074C61.0917 124.122 60.9806 124.166 60.9228 124.215C60.9714 124.273 60.9911 124.355 61.0397 124.413C61.1718 124.746 61.3235 125.162 61.4544 125.2C61.9 125.319 62.6428 124.793 63.3836 124.911C64.5457 125.119 65.4453 126.189 65.5037 127.374C65.4936 128.419 64.7962 129.351 64.359 130.064C64.2213 130.272 64.1116 130.497 64.0329 130.733C65.5877 131.055 67.0321 131.717 68.2268 132.786C68.97 133.494 69.806 134.371 69.8447 135.474C69.7722 136.621 68.5409 137.211 67.9789 138.128C67.729 138.536 67.6403 139.252 67.7828 139.774C67.9817 140.784 68.3214 141.761 68.792 142.677C69.3144 143.769 69.9966 144.873 69.9149 146.127C69.8822 146.539 69.7654 146.94 69.5716 147.305C69.538 147.382 69.4756 147.484 69.4421 147.562C70.0525 148.875 70.6386 150.16 71.1912 151.522C72.1204 153.801 72.9141 156.096 73.732 158.42C73.7951 158.428 73.859 158.424 73.9207 158.409C75.6135 158.368 77.8643 159.635 77.3743 161.578C77.2854 162.094 77.0969 162.587 76.8194 163.031C76.7905 163.055 76.7569 163.133 76.728 163.157C77.1577 163.455 77.5422 163.814 77.8696 164.222C78.6293 165.36 78.7572 166.98 78.0899 168.183C77.9429 168.412 77.7806 168.631 77.604 168.838L77.4884 168.936C77.8162 169.795 78.1441 170.655 78.5004 171.491C79.9945 171.271 80.415 172.3 81.2799 173.153C81.6979 173.591 82.1678 173.739 82.5057 173.554C82.9836 173.3 83.0343 172.714 82.849 172.376C82.4113 171.856 81.4333 171.69 80.711 171.36C80.1148 171.12 79.5371 170.668 79.2683 170.055C79.0087 169.337 78.9734 168.558 79.1671 167.82C79.3566 166.871 80.5223 164.558 81.7132 164.742C81.8204 164.303 82.0501 163.904 82.3756 163.592C83.4261 162.61 85.1469 162.249 86.4226 163.003C86.7814 163.195 87.1357 163.441 87.3499 163.754C87.5858 164.159 87.7298 164.611 87.7717 165.078C87.8002 165.156 87.8022 165.241 87.7776 165.32C87.9472 165.313 88.117 165.319 88.2857 165.337C89.0508 165.484 90.0741 166.054 90.6216 166.236C91.2755 166.427 91.9924 166.516 92.5454 166.939C93.8999 168.022 93.9898 169.773 93.1929 171.233C93.0634 171.49 92.9095 171.718 92.7846 171.922C93.6862 172.348 94.5592 172.799 95.4609 173.226C97.202 174.181 98.0829 175.464 97.3593 177.011C98.825 178.05 99.8546 180.096 98.904 181.784C97.9763 183.206 96.0623 183.63 95.0558 184.723C94.6127 185.194 94.194 185.694 93.634 185.968C93.1702 186.157 92.6659 186.224 92.1689 186.163C92.111 186.212 92.0485 186.313 91.9906 186.362C91.4411 186.824 90.6669 186.784 90.0126 186.593C89.0149 186.346 88.3282 185.294 87.533 184.877C87.3003 184.776 86.9473 184.826 86.7205 184.967C86.2716 185.197 85.8423 185.508 85.3497 185.626C85.9647 186.887 86.5752 188.2 87.1324 189.509C89.0958 193.782 90.0594 198.451 92.0229 202.725C92.6484 204.173 93.5586 205.432 94.566 206.807C94.6272 206.41 94.7416 206.017 95.0112 205.692C95.5502 205.041 96.2306 204.618 96.5856 203.924C97.0944 203.003 97.0072 201.842 97.6712 200.988C98.8163 199.531 101.121 199.865 102.331 201.069C103.006 201.637 103.212 202.352 103.254 203.107C104.537 202.226 105.869 201.402 107.412 201.241C108.712 201.085 110.359 201.576 110.892 202.856C111.095 203.92 110.344 204.847 109.918 205.749C109.601 206.311 109.444 206.888 109.311 207.493L109.364 207.498C110.482 207.594 111.629 207.667 112.761 207.604C113.888 207.594 115.174 207.303 116.221 207.903C116.939 208.287 117.32 209.152 116.96 209.898C116.169 211.6 113.893 212.181 112.147 212.217C110.27 212.215 108.799 212.168 107.319 213.462C106.852 213.904 106.13 214.807 105.518 215.371C104.785 216.085 103.975 216.766 103.024 217.22C102.924 217.249 102.829 217.295 102.744 217.357C104.102 219.03 105.454 220.756 106.695 222.526C106.861 222.782 107.08 223.042 107.217 223.322C107.256 223.487 107.058 223.604 106.894 223.643C106.405 223.708 106.234 223.211 106.02 222.897C105.426 222.014 104.749 221.151 104.098 220.317C101.928 217.501 99.6372 214.835 97.4962 211.995C95.6515 209.448 93.5846 206.99 91.9957 204.277C91.6243 204.54 91.2088 204.692 90.8618 204.984C90.3458 205.368 89.6772 206.276 89.6658 207.026C89.5158 208.139 89.816 209.319 90.2793 210.163C90.7472 210.955 91.3005 211.378 92.1083 211.341C92.2681 211.355 92.6395 211.092 92.5223 210.894C92.4008 210.75 92.3232 210.716 92.0813 210.722C91.9459 210.737 91.8289 210.539 91.9689 210.471C92.109 210.402 92.2398 210.441 92.3751 210.426C92.9805 210.558 93.2249 211.143 92.607 211.465C92.0713 211.767 91.3641 211.572 90.8498 211.313C89.7628 210.549 89.2924 209.167 89.2144 207.9C89.1447 207.304 89.235 206.7 89.4757 206.151C89.7165 205.601 90.0992 205.126 90.5845 204.773C90.927 204.535 91.2649 204.349 91.6317 204.14C90.9199 203.998 90.1469 204.253 89.2569 204.31C89.0683 204.32 88.8842 204.278 88.6957 204.288L88.7442 204.346C88.8415 204.462 89.1484 204.944 89.203 205.244C89.6549 206.838 87.8381 207.378 86.5998 207.432C85.3036 207.535 84.1113 207.056 83.0537 207.501C82.65 207.638 82.2764 207.851 81.9533 208.13C82.3364 208.35 82.7486 208.547 83.1318 208.768C84.3634 209.411 85.5859 210.16 86.2831 211.401C87.1262 212.815 87.5689 214.516 87.1356 216.114C86.908 217.194 86.2743 218.319 85.1634 218.76C84.2839 219.005 83.6924 218.713 83.2882 218.115C83.524 220.039 83.1661 222.315 81.7886 223.67C80.7914 224.657 79.242 225.515 77.851 224.858C77.2099 224.569 76.6714 224.092 76.3066 223.491C75.8872 222.757 75.7585 222.076 75.1322 221.566C74.6761 221.258 74.2166 221.299 73.6694 221.117C73.3346 220.984 73.0347 220.775 72.7929 220.508C72.5511 220.241 72.3736 219.921 72.2742 219.575C72.1954 219.246 72.1409 218.947 72.091 218.594C71.6801 218.692 71.2404 218.815 70.7231 218.904C69.6835 219.136 68.9015 218.264 68.0573 217.789C67.5524 217.423 66.3602 216.944 66.0948 215.982ZM56.8488 149.904L56.9066 149.855C57.042 149.84 57.1334 149.714 57.2004 149.559C57.4239 149.171 57.587 148.751 57.684 148.314C57.8353 147.495 57.7539 146.576 57.2768 145.891C56.7998 145.206 56.0635 145.036 55.33 145.455C54.8232 145.733 53.8904 145.974 54.0389 146.738C54.4443 147.631 55.4189 148.144 55.9402 148.94C56.0971 149.124 56.2326 149.324 56.3442 149.538C56.4854 149.765 56.5689 150.041 56.8489 149.904H56.8488ZM55.4145 125.884C55.7267 125.375 56.5425 124.936 56.856 124.721C57.2077 124.376 57.4529 124.022 57.5674 123.63C56.3981 122.885 54.8102 122.64 53.7223 122.814C53.1228 122.923 52.7816 123.457 52.4451 123.937C53.3099 124.79 54.1703 125.696 55.0062 126.573C55.1055 126.323 55.2433 126.091 55.4147 125.884H55.4145ZM52.1312 126.324C51.2195 126.942 51.4964 128.388 52.3704 129.134C53.0848 129.866 54.4414 130.306 55.2484 131.207C55.7636 131.761 56.0277 132.427 56.4562 133.054C56.5489 133.223 56.7677 133.484 56.8847 133.682C56.9932 133.6 57.0833 133.496 57.149 133.377C57.2148 133.258 57.2549 133.126 57.2666 132.991C57.2783 132.855 57.2615 132.719 57.2171 132.59C57.1728 132.461 57.1019 132.344 57.0091 132.244C56.8886 132.091 56.734 131.967 56.5577 131.883C56.6529 132.052 56.7099 132.24 56.7246 132.434C56.753 132.512 56.755 132.597 56.7304 132.676C56.639 132.802 56.3196 132.775 56.3334 132.615C56.2927 132.155 56.0194 131.595 55.5724 131.181C55.0421 130.492 53.2356 129.987 53.4813 128.694C53.5806 128.166 53.8837 127.763 54.2597 127.447L54.4911 127.252C54.0244 126.756 53.5578 126.26 53.1156 125.792C52.8072 125.953 52.4207 126.081 52.1314 126.324L52.1312 126.324ZM37.8626 109.292C38.2102 110.234 38.0996 111.512 38.8903 111.983C39.1229 112.083 39.1657 111.899 39.0961 111.464C39.06 110.952 38.7623 110.363 38.3732 109.9C38.232 109.673 38.0328 109.495 37.8626 109.292ZM57.754 115.278C57.5168 115.231 57.1106 115.276 57.0829 115.596C57.0414 116.075 57.0532 116.559 57.2582 116.979C57.3509 117.148 57.41 117.394 57.6275 117.359L57.6565 117.335C57.6762 117.417 57.807 117.455 57.8891 117.436C58.0778 117.425 58.1206 117.241 58.1587 117.11C58.302 116.694 58.4546 116.17 58.2495 115.75C58.2284 115.629 58.1688 115.518 58.0796 115.433C57.9904 115.348 57.8763 115.294 57.754 115.278ZM65.759 166.257C65.9698 166.919 66.6704 167.811 67.3093 167.867C68.0441 167.742 67.6177 166.472 67.136 165.84C66.8291 165.358 66.1206 164.867 65.6113 164.555C65.6138 165.145 65.6164 165.735 65.759 166.257ZM76.8417 169.282C76.2482 169.633 75.5133 169.757 74.8453 169.726C74.8886 170.775 74.8786 171.82 74.394 172.771C73.7602 173.896 72.3995 174.744 71.4118 173.452C71.2659 173.278 71.149 173.08 71.0273 172.936C70.4811 173.049 69.9198 173.028 69.5044 173.179C68.5486 173.687 68.7574 174.992 69.7703 175.375C70.4971 175.652 71.2866 175.828 71.8505 176.44C72.1909 176.845 72.4445 177.323 72.8139 177.703L72.9354 177.848L72.9401 177.795C72.9086 177.229 72.465 176.466 72.5249 175.774C72.7072 174.288 74.1304 173.338 75.3372 172.719C76.0088 172.401 76.4607 171.824 77.1804 171.564C77.3448 171.525 77.538 171.461 77.7023 171.422C77.3943 170.644 77.1059 169.948 76.8417 169.282ZM99.8409 213.727C100.041 213.954 100.226 214.194 100.396 214.445L100.502 214.454C100.793 214.506 101.059 214.53 101.223 214.49C101.576 214.44 102.141 214.114 102.168 213.794C102.233 213.049 101.298 212.699 100.601 212.693C100.441 212.679 99.9147 212.875 99.7453 212.968C99.6342 213.012 99.5474 213.085 99.4074 213.153C99.5374 213.355 99.6823 213.547 99.8409 213.727V213.727Z" fill="url(#paint2_linear_9_6120)"/>
<path fill-rule="evenodd" clip-rule="evenodd" d="M132.578 51.7806C132.725 51.5526 133.033 51.2813 133.381 50.9956C134.412 50.1563 135.885 49.265 136.026 49.1698C138.262 47.695 140.612 46.3419 142.869 44.8838C143.846 44.2483 144.811 43.5937 145.741 42.8998C146.043 42.6707 148.051 41.302 148.487 40.3248C148.595 40.0955 148.626 39.837 148.574 39.5888C148.537 39.4558 148.473 39.3321 148.385 39.2258C148.298 39.1194 148.188 39.0328 148.065 38.9717C147.596 38.7165 146.947 38.6421 146.237 38.6964C144.904 38.7976 143.324 39.3336 142.514 39.5512C139.824 40.2855 137.176 41.1623 134.58 42.1777C131.968 43.1855 129.41 44.2961 126.893 45.4356C119.728 48.682 112.671 52.1841 105.841 55.9887C98.9181 59.8487 92.2292 64.0216 85.9151 68.5627C83.0292 70.6339 79.8487 72.8458 77.1102 75.3372C75.1818 77.0944 73.4744 78.9923 72.2357 81.0727C72.191 81.1483 72.1615 81.232 72.1491 81.319C72.1367 81.406 72.1415 81.4945 72.1633 81.5797C72.1852 81.6648 72.2235 81.7448 72.2763 81.8151C72.329 81.8854 72.3951 81.9446 72.4707 81.9893C72.5463 82.0341 72.63 82.0635 72.717 82.076C72.804 82.0884 72.8926 82.0835 72.9777 82.0617C73.0628 82.0399 73.1428 82.0015 73.2131 81.9488C73.2834 81.8961 73.3426 81.83 73.3874 81.7544C74.5524 79.7745 76.1658 77.9705 77.9874 76.2931C80.6724 73.8197 83.7993 71.622 86.6316 69.5619C92.8921 65.0139 99.5208 60.8289 106.384 56.9567C113.167 53.1325 120.184 49.6143 127.308 46.3465C129.799 45.2057 132.337 44.0925 134.928 43.0822C137.491 42.07 140.106 41.1947 142.762 40.4602C143.438 40.2773 144.663 39.8558 145.815 39.6821C146.511 39.5764 147.174 39.5441 147.616 39.7854C147.743 39.8535 147.643 39.9632 147.563 40.089C147.377 40.3626 147.156 40.6109 146.906 40.8278C146.223 41.4581 145.373 42.0291 145.192 42.167C144.282 42.8504 143.331 43.4958 142.373 44.1221C140.117 45.5865 137.773 46.9436 135.537 48.4237C135.35 48.5473 133.06 49.947 132.122 50.9341C131.931 51.1223 131.779 51.3461 131.674 51.5927C131.533 51.9829 131.633 52.2877 131.988 52.488C132.671 52.8638 133.877 52.8679 135.263 52.6346C137.78 52.2092 140.934 51.0697 142.106 50.767C147.596 49.3569 153.087 47.9385 158.644 46.7374C162.32 45.9414 166.029 45.2418 169.779 44.6997C182.976 42.8012 197.171 42.3325 211.185 43.4783C225.253 44.6294 239.14 47.4081 251.634 51.9811C251.717 52.011 251.805 52.0243 251.893 52.0203C251.98 52.0162 252.066 51.995 252.146 51.9576C252.226 51.9203 252.297 51.8677 252.356 51.8027C252.416 51.7378 252.462 51.6618 252.491 51.5792C252.521 51.4965 252.535 51.4088 252.531 51.3209C252.527 51.2331 252.505 51.147 252.468 51.0674C252.431 50.9878 252.378 50.9163 252.313 50.8571C252.248 50.7978 252.172 50.7519 252.09 50.7221C239.475 46.1798 225.461 43.4564 211.272 42.3625C197.178 41.2769 182.903 41.798 169.638 43.7609C165.876 44.3167 162.146 45.0331 158.443 45.8418C152.886 47.0581 147.382 48.485 141.885 49.9067C140.726 50.2069 137.606 51.3395 135.115 51.7596C134.071 51.9347 133.153 52.0069 132.578 51.7806ZM279.656 217.406C283.646 216.772 287.731 215.449 291.514 213.55C295.297 211.648 298.779 209.171 301.523 206.169C304.121 203.388 306.003 199.888 308.427 196.911C309.438 195.665 310.549 194.517 311.855 193.555C313.161 192.591 314.614 191.948 316.14 191.511C317.68 191.067 319.301 190.837 320.914 190.702C321.09 190.685 321.253 190.598 321.365 190.461C321.477 190.324 321.531 190.149 321.514 189.972C321.497 189.796 321.411 189.634 321.275 189.521C321.139 189.408 320.963 189.353 320.787 189.369C319.093 189.552 317.399 189.839 315.785 190.344C314.145 190.858 312.585 191.594 311.185 192.673C309.833 193.714 308.688 194.95 307.637 196.28C305.273 199.278 303.432 202.772 300.874 205.566C298.169 208.45 294.761 210.834 291.051 212.614C287.391 214.363 283.481 215.532 279.461 216.081C279.372 216.091 279.287 216.12 279.209 216.164C279.132 216.209 279.064 216.268 279.01 216.339C278.956 216.41 278.916 216.491 278.894 216.578C278.872 216.664 278.867 216.754 278.88 216.842C278.893 216.931 278.923 217.016 278.97 217.092C279.016 217.168 279.077 217.235 279.149 217.287C279.221 217.34 279.303 217.377 279.39 217.397C279.477 217.418 279.567 217.42 279.655 217.405L279.656 217.406Z" fill="#E3DBF9"/>
<path fill-rule="evenodd" clip-rule="evenodd" d="M169.816 158.673C176.535 175.453 199.599 202.114 220.321 202.11C250.252 202.112 282.293 123.728 282.293 123.728C294.391 115.491 286.985 104.052 281.518 94.4617L273.19 115.018C273.19 115.018 237.161 165.409 221.632 163.14C206.101 160.874 188.645 102.162 180.01 101.417C171.374 100.672 163.099 141.889 169.816 158.673Z" fill="#FB9C9A"/>
<path fill-rule="evenodd" clip-rule="evenodd" d="M257.322 117.03C241.486 96.5985 232.018 67.47 205.403 58.3794C186.728 52.0004 169.942 61.6516 159.363 77.0872C142.891 101.124 137.568 135.614 147.123 163.236C160.843 202.896 207.298 216.294 243.836 200.88C255.159 196.102 266.414 188.947 272.688 178.045C277.375 169.901 281.801 153.797 273.559 146.009C270.84 143.439 266.26 144.522 263.93 141.559C262.156 139.309 263.026 136.313 261.995 133.8C260.314 129.679 253.947 128.76 250.057 129.256L257.322 117.03Z" fill="url(#paint3_linear_9_6120)"/>
<path fill-rule="evenodd" clip-rule="evenodd" d="M167.136 180.042C176.721 168.386 191.332 118.283 183.86 104.223C176.389 90.1625 136.77 75.1716 122.305 95.6784C109.592 113.698 118.881 160.093 126.353 174.153C132.795 186.284 158.412 190.651 167.136 180.042Z" fill="#152039"/>
<path fill-rule="evenodd" clip-rule="evenodd" d="M164.084 117.397C163.58 116.062 162.567 114.982 161.267 114.395C159.967 113.808 158.487 113.76 157.152 114.264L81.6064 142.776C80.9459 143.026 80.341 143.403 79.8262 143.886C79.3115 144.37 78.897 144.95 78.6065 145.593C78.3159 146.237 78.1549 146.931 78.1328 147.637C78.1106 148.343 78.2277 149.046 78.4773 149.707L123.063 267.839C123.566 269.173 124.579 270.253 125.878 270.84C127.177 271.428 128.657 271.476 129.991 270.973L205.537 242.461C206.871 241.956 207.95 240.943 208.538 239.643C209.126 238.343 209.173 236.863 208.67 235.529L164.084 117.397Z" fill="white"/>
<path fill-rule="evenodd" clip-rule="evenodd" d="M107.068 154.455C106.936 154.106 106.671 153.823 106.33 153.67C105.99 153.516 105.603 153.503 105.253 153.635L92.2551 158.541C91.9058 158.673 91.6231 158.938 91.4694 159.278C91.3156 159.619 91.3032 160.006 91.4349 160.356L91.4354 160.357C91.5673 160.706 91.8326 160.989 92.1729 161.143C92.5132 161.296 92.9007 161.309 93.2502 161.177L106.248 156.271C106.598 156.139 106.88 155.874 107.034 155.534C107.188 155.193 107.2 154.806 107.068 154.456L107.068 154.455ZM105.026 149.044C104.894 148.694 104.628 148.412 104.288 148.258C103.948 148.104 103.56 148.092 103.211 148.223L90.2126 153.129C89.8632 153.261 89.5806 153.526 89.4269 153.867C89.2731 154.207 89.2607 154.595 89.3925 154.944V154.945C89.5245 155.295 89.7898 155.577 90.1301 155.731C90.4704 155.885 90.8578 155.897 91.2073 155.765L104.206 150.86C104.555 150.728 104.838 150.463 104.992 150.122C105.145 149.782 105.158 149.395 105.026 149.045L105.026 149.044Z" fill="#E3E3FE"/>
<path fill-rule="evenodd" clip-rule="evenodd" d="M163.859 116.8C163.639 116.217 163.307 115.684 162.881 115.23C162.455 114.776 161.944 114.411 161.377 114.155C160.81 113.898 160.198 113.756 159.576 113.737C158.954 113.717 158.334 113.82 157.752 114.04L81.0131 143.002C80.4308 143.222 79.8974 143.554 79.4435 143.98C78.9895 144.406 78.6239 144.917 78.3675 145.484C78.1111 146.051 77.969 146.663 77.9492 147.285C77.9294 147.908 78.0323 148.527 78.2521 149.11V149.111C78.4718 149.693 78.8042 150.226 79.2301 150.68C79.6559 151.134 80.1671 151.5 80.7343 151.756C81.3014 152.012 81.9136 152.154 82.5357 152.174C83.1577 152.194 83.7776 152.091 84.3599 151.871L161.098 122.908C161.681 122.688 162.214 122.356 162.668 121.93C163.122 121.504 163.487 120.993 163.744 120.426C164 119.859 164.142 119.247 164.162 118.625C164.182 118.003 164.079 117.383 163.859 116.801V116.8Z" fill="white"/>
<path fill-rule="evenodd" clip-rule="evenodd" d="M143.632 185.146C143.583 185.151 143.533 185.14 143.491 185.114C143.449 185.088 143.417 185.049 143.4 185.003L134.075 160.298C133.666 159.215 132.844 158.339 131.789 157.863C130.734 157.386 129.534 157.348 128.451 157.756L128.447 157.757C127.911 157.96 127.42 158.265 127.002 158.658C126.584 159.05 126.248 159.52 126.012 160.043C125.776 160.565 125.646 161.128 125.628 161.701C125.61 162.274 125.705 162.845 125.908 163.38L135.308 188.286V188.287L135.305 188.288L134.895 188.443C134.782 188.486 134.657 188.486 134.544 188.443C134.431 188.399 134.338 188.315 134.283 188.207C133.122 185.95 127.226 174.476 124.228 168.644C123.998 168.196 123.681 167.798 123.297 167.472C122.913 167.146 122.469 166.898 121.989 166.744C121.509 166.59 121.004 166.532 120.502 166.573C120 166.614 119.511 166.754 119.063 166.984C119.059 166.986 119.059 166.986 119.059 166.986C118.611 167.216 118.212 167.532 117.886 167.917C117.56 168.301 117.313 168.746 117.159 169.226C117.005 169.706 116.946 170.211 116.988 170.713C117.029 171.216 117.169 171.705 117.399 172.153C119.382 176.01 122.664 182.397 125.216 187.361C127.666 192.133 129.844 197.04 131.738 202.059C131.738 202.059 128.184 198.438 125.401 195.602C124.534 194.72 123.353 194.218 122.116 194.207C120.88 194.196 119.689 194.676 118.807 195.543V195.543C118.371 195.972 118.024 196.482 117.786 197.045C117.548 197.608 117.424 198.213 117.421 198.824C117.418 199.435 117.536 200.041 117.769 200.607C118.001 201.172 118.343 201.686 118.775 202.118C121.892 205.242 126.713 210.064 130.933 214.292C133.531 216.893 136.824 218.689 140.418 219.465C144.012 220.24 147.753 219.962 151.193 218.664C161.16 214.902 166.191 203.773 162.43 193.807L160.813 189.524C160.813 189.524 159.196 172.825 158.45 165.114C158.351 164.101 157.854 163.169 157.068 162.522C156.282 161.875 155.272 161.567 154.258 161.665V161.664C153.245 161.763 152.312 162.259 151.665 163.045C151.017 163.831 150.709 164.841 150.806 165.855C151.366 171.613 152.358 181.853 152.358 181.853L152.281 181.882C152.203 181.891 152.123 181.871 152.058 181.827C151.992 181.782 151.945 181.716 151.924 181.64C151.347 179.426 148.117 167.058 146.372 160.377C146.075 159.241 145.34 158.27 144.327 157.677C143.315 157.083 142.108 156.916 140.972 157.212L140.969 157.213C140.407 157.36 139.879 157.616 139.415 157.967C138.952 158.318 138.562 158.757 138.269 159.258C137.975 159.76 137.783 160.314 137.704 160.89C137.625 161.466 137.66 162.052 137.807 162.614C139.783 170.181 143.684 185.127 143.684 185.127L143.632 185.146Z" fill="url(#paint4_linear_9_6120)"/>
<path fill-rule="evenodd" clip-rule="evenodd" d="M192.633 215.72L195.987 224.609C196.488 225.936 196.441 227.407 195.857 228.7C195.273 229.992 194.199 231 192.872 231.501L183.49 235.042L182.616 232.726L191.998 229.184C192.352 229.051 192.675 228.85 192.951 228.592C193.226 228.334 193.448 228.024 193.604 227.68C193.76 227.336 193.846 226.965 193.859 226.588C193.871 226.21 193.809 225.834 193.676 225.481L190.321 216.592L192.633 215.72ZM124.044 241.607L127.398 250.496C127.531 250.849 127.732 251.172 127.99 251.448C128.248 251.723 128.558 251.945 128.901 252.1C129.245 252.255 129.616 252.342 129.993 252.353C130.37 252.365 130.746 252.303 131.099 252.169L140.482 248.628L141.356 250.945L131.973 254.486C130.645 254.987 129.174 254.94 127.881 254.355C126.589 253.771 125.581 252.698 125.08 251.371L121.726 242.482L124.044 241.607ZM107.912 162.334L108.787 164.65L99.4036 168.192C99.0506 168.325 98.7273 168.526 98.4522 168.784C98.1771 169.042 97.9555 169.352 97.8002 169.696C97.6449 170.039 97.5589 170.41 97.5472 170.788C97.5354 171.165 97.5981 171.54 97.7317 171.893L101.086 180.781L98.7692 181.656L95.4144 172.768C94.9137 171.44 94.9606 169.969 95.5447 168.676C96.1288 167.384 97.2024 166.376 98.5292 165.875L107.912 162.334ZM150.046 146.432L159.429 142.89C160.756 142.39 162.227 142.437 163.52 143.021C164.812 143.605 165.82 144.679 166.321 146.006L169.676 154.894L167.364 155.767L164.009 146.878C163.875 146.525 163.674 146.202 163.415 145.927C163.157 145.652 162.846 145.43 162.502 145.275C162.158 145.12 161.787 145.034 161.409 145.022C161.032 145.011 160.656 145.073 160.303 145.207L150.92 148.748L150.046 146.432Z" fill="#E3E3FE"/>
<path d="M130.458 232.318C130.908 232.148 131.322 232.177 131.698 232.403C132.146 232.669 132.537 233.245 132.871 234.129C133.204 235.011 133.285 235.704 133.127 236.204C132.998 236.617 132.705 236.909 132.254 237.078C132.046 237.164 131.819 237.199 131.594 237.18C131.369 237.161 131.152 237.089 130.961 236.969C130.547 236.727 130.177 236.156 129.839 235.262C129.508 234.384 129.421 233.695 129.58 233.194C129.715 232.78 130.007 232.488 130.458 232.318ZM130.737 233.059C130.63 233.099 130.541 233.175 130.483 233.273C130.422 233.413 130.403 233.567 130.428 233.717C130.455 233.971 130.57 234.372 130.776 234.919C130.982 235.466 131.151 235.832 131.283 236.016C131.42 236.198 131.536 236.31 131.649 236.345C131.755 236.381 131.87 236.379 131.975 236.338C132.08 236.299 132.168 236.224 132.223 236.126C132.289 235.988 132.309 235.832 132.278 235.682C132.257 235.428 132.138 235.03 131.931 234.483C131.725 233.936 131.556 233.571 131.425 233.387C131.293 233.203 131.171 233.092 131.064 233.054C130.958 233.017 130.842 233.019 130.737 233.059ZM134.077 230.952C134.528 230.782 134.941 230.81 135.318 231.036C135.766 231.303 136.157 231.879 136.49 232.763C136.823 233.645 136.911 234.336 136.752 234.836C136.617 235.251 136.325 235.543 135.874 235.713C135.665 235.798 135.439 235.832 135.214 235.813C134.989 235.794 134.772 235.722 134.58 235.603C134.172 235.359 133.796 234.791 133.459 233.896C133.127 233.018 133.041 232.329 133.205 231.827C133.334 231.414 133.627 231.122 134.077 230.952ZM134.357 231.693C134.251 231.731 134.163 231.807 134.109 231.905C134.043 232.044 134.021 232.2 134.048 232.351C134.075 232.605 134.195 233.004 134.401 233.551C134.608 234.098 134.777 234.463 134.908 234.648C135.04 234.832 135.161 234.941 135.269 234.978C135.375 235.014 135.49 235.011 135.595 234.971C135.699 234.931 135.787 234.857 135.843 234.76C135.909 234.621 135.93 234.465 135.904 234.313C135.877 234.062 135.764 233.662 135.557 233.115C135.351 232.568 135.182 232.203 135.05 232.019C134.913 231.836 134.797 231.724 134.684 231.688C134.578 231.65 134.462 231.652 134.357 231.693H134.357ZM140.24 233.974L139.35 234.31L138.079 230.942C137.864 231.375 137.557 231.755 137.179 232.056L136.873 231.245C137.111 231.041 137.313 230.797 137.468 230.524C137.654 230.239 137.752 229.906 137.751 229.565L138.473 229.293L140.24 233.974ZM143.507 232.741L142.611 233.079L141.34 229.712C141.126 230.144 140.818 230.524 140.44 230.825L140.134 230.014C140.373 229.81 140.574 229.566 140.73 229.293C140.915 229.008 141.013 228.675 141.013 228.334L141.74 228.06L143.507 232.741ZM146.768 231.51L145.873 231.848L144.602 228.481C144.387 228.913 144.08 229.293 143.702 229.594L143.396 228.783C143.635 228.577 143.838 228.333 143.997 228.06C144.178 227.774 144.275 227.442 144.274 227.103L145.001 226.829L146.768 231.51ZM147.845 225.756C148.296 225.586 148.709 225.614 149.086 225.84C149.534 226.107 149.924 226.682 150.258 227.566C150.591 228.448 150.678 229.139 150.52 229.64C150.385 230.054 150.092 230.346 149.642 230.516C149.433 230.602 149.207 230.636 148.982 230.617C148.757 230.598 148.54 230.526 148.348 230.407C147.94 230.162 147.564 229.594 147.226 228.7C146.895 227.822 146.809 227.133 146.972 226.63C147.102 226.218 147.395 225.926 147.845 225.756ZM148.125 226.497C148.019 226.536 147.931 226.611 147.876 226.709C147.81 226.847 147.79 227.003 147.821 227.153C147.843 227.409 147.962 227.808 148.169 228.355C148.375 228.902 148.544 229.267 148.676 229.451C148.807 229.636 148.929 229.745 149.036 229.783C149.142 229.818 149.258 229.816 149.362 229.776C149.469 229.736 149.559 229.66 149.616 229.562C149.677 229.422 149.697 229.268 149.671 229.117C149.645 228.866 149.531 228.466 149.325 227.919C149.118 227.372 148.949 227.007 148.818 226.823C148.686 226.639 148.564 226.528 148.451 226.492C148.345 226.454 148.229 226.456 148.125 226.497ZM151.47 224.388C151.921 224.218 152.334 224.246 152.711 224.472C153.159 224.739 153.544 225.316 153.878 226.2C154.211 227.082 154.298 227.773 154.14 228.274C154.01 228.686 153.717 228.978 153.267 229.148C153.058 229.234 152.832 229.268 152.607 229.249C152.382 229.23 152.165 229.158 151.973 229.038C151.559 228.796 151.189 228.226 150.851 227.331C150.52 226.453 150.434 225.764 150.592 225.264C150.727 224.85 151.014 224.56 151.47 224.388ZM151.75 225.129C151.643 225.168 151.553 225.244 151.496 225.343C151.435 225.482 151.415 225.636 151.44 225.787C151.468 226.04 151.582 226.442 151.789 226.989C151.995 227.536 152.164 227.901 152.295 228.085C152.427 228.269 152.549 228.379 152.661 228.414C152.767 228.451 152.883 228.448 152.987 228.407C153.092 228.368 153.18 228.293 153.236 228.195C153.302 228.057 153.321 227.901 153.291 227.751C153.27 227.497 153.15 227.1 152.944 226.553C152.737 226.006 152.569 225.64 152.437 225.456C152.306 225.272 152.183 225.162 152.076 225.124C151.97 225.087 151.855 225.089 151.75 225.129ZM155.09 223.022C155.54 222.852 155.954 222.88 156.331 223.106C156.778 223.373 157.169 223.948 157.503 224.832C157.836 225.714 157.923 226.405 157.765 226.906C157.63 227.32 157.337 227.612 156.887 227.782C156.678 227.868 156.452 227.903 156.227 227.884C156.002 227.865 155.784 227.792 155.593 227.673C155.184 227.428 154.809 226.86 154.471 225.965C154.14 225.088 154.053 224.399 154.217 223.896C154.347 223.484 154.639 223.192 155.09 223.022ZM155.369 223.762C155.264 223.801 155.175 223.876 155.121 223.975C155.055 224.113 155.034 224.269 155.06 224.421C155.088 224.674 155.202 225.076 155.408 225.623C155.615 226.17 155.784 226.535 155.921 226.717C156.052 226.901 156.174 227.011 156.281 227.049C156.387 227.084 156.503 227.081 156.607 227.041C156.712 227.002 156.8 226.927 156.856 226.83C156.921 226.691 156.943 226.535 156.916 226.384C156.89 226.132 156.776 225.732 156.57 225.185C156.363 224.638 156.194 224.273 156.057 224.091C155.926 223.907 155.809 223.794 155.696 223.758C155.59 223.72 155.474 223.721 155.37 223.762H155.369ZM161.252 226.043L160.362 226.379L159.091 223.012C158.877 223.445 158.569 223.825 158.191 224.125L157.885 223.314C158.124 223.11 158.325 222.866 158.481 222.593C158.664 222.307 158.762 221.975 158.764 221.635L159.486 221.362L161.252 226.043ZM164.514 224.812L163.624 225.148L162.353 221.781C162.138 222.214 161.831 222.594 161.453 222.894L161.147 222.083C161.385 221.879 161.587 221.635 161.742 221.362C161.928 221.077 162.026 220.744 162.025 220.404L162.747 220.131L164.514 224.812ZM167.78 223.579L166.885 223.917L165.614 220.55C165.399 220.983 165.092 221.363 164.714 221.663L164.408 220.852C164.646 220.648 164.848 220.404 165.004 220.131C165.189 219.846 165.287 219.513 165.287 219.173L166.013 218.898L167.78 223.579ZM171.042 222.348L170.147 222.686L168.876 219.319C168.661 219.752 168.354 220.132 167.976 220.432L167.67 219.621C167.91 219.417 168.113 219.172 168.271 218.898C168.452 218.612 168.549 218.28 168.548 217.942L169.275 217.667L171.042 222.348ZM172.119 216.594C172.575 216.422 172.983 216.452 173.36 216.679C173.808 216.945 174.198 217.521 174.532 218.405C174.865 219.287 174.952 219.978 174.794 220.478C174.659 220.892 174.372 221.183 173.916 221.355C173.707 221.44 173.481 221.475 173.256 221.456C173.031 221.437 172.814 221.365 172.622 221.245C172.214 221.001 171.838 220.433 171.5 219.538C171.169 218.66 171.083 217.971 171.246 217.469C171.376 217.057 171.669 216.764 172.119 216.594ZM172.399 217.335C172.293 217.374 172.205 217.45 172.15 217.547C172.084 217.685 172.064 217.841 172.095 217.991C172.117 218.247 172.236 218.646 172.443 219.193C172.649 219.74 172.818 220.106 172.95 220.29C173.081 220.474 173.203 220.583 173.31 220.621C173.416 220.656 173.532 220.654 173.636 220.614C173.743 220.574 173.833 220.498 173.89 220.4C173.951 220.26 173.971 220.106 173.945 219.955C173.919 219.704 173.805 219.304 173.599 218.757C173.392 218.21 173.223 217.845 173.092 217.661C172.96 217.477 172.838 217.366 172.725 217.33C172.619 217.292 172.503 217.294 172.399 217.335ZM175.744 215.226C176.195 215.056 176.608 215.084 176.985 215.31C177.433 215.577 177.823 216.153 178.157 217.037C178.49 217.918 178.572 218.612 178.414 219.112C178.284 219.524 177.991 219.817 177.541 219.986C177.332 220.072 177.106 220.107 176.881 220.088C176.656 220.069 176.439 219.997 176.247 219.877C175.833 219.634 175.463 219.064 175.125 218.169C174.794 217.292 174.708 216.603 174.866 216.102C175.001 215.688 175.294 215.396 175.744 215.226ZM176.024 215.967C175.917 216.007 175.827 216.082 175.77 216.181C175.709 216.321 175.689 216.475 175.714 216.625C175.742 216.879 175.856 217.28 176.063 217.827C176.269 218.374 176.438 218.739 176.569 218.924C176.701 219.108 176.823 219.217 176.935 219.252C177.041 219.289 177.157 219.287 177.261 219.245C177.366 219.206 177.454 219.131 177.51 219.034C177.576 218.896 177.595 218.74 177.565 218.589C177.543 218.336 177.424 217.938 177.218 217.391C177.011 216.844 176.843 216.479 176.711 216.295C176.58 216.11 176.457 216 176.35 215.962C176.244 215.925 176.128 215.927 176.024 215.967H176.024ZM179.364 213.86C179.814 213.69 180.228 213.718 180.605 213.944C181.052 214.211 181.443 214.786 181.777 215.67C182.11 216.552 182.197 217.243 182.039 217.744C181.904 218.158 181.611 218.45 181.161 218.62C180.952 218.706 180.726 218.741 180.501 218.722C180.276 218.703 180.058 218.631 179.867 218.511C179.458 218.267 179.083 217.698 178.745 216.804C178.414 215.926 178.328 215.237 178.491 214.734C178.621 214.322 178.913 214.03 179.364 213.86ZM179.643 214.601C179.538 214.639 179.449 214.715 179.395 214.813C179.329 214.952 179.308 215.108 179.334 215.259C179.362 215.513 179.476 215.914 179.682 216.461C179.889 217.008 180.063 217.371 180.195 217.555C180.326 217.74 180.448 217.849 180.555 217.887C180.661 217.923 180.777 217.921 180.881 217.88C180.987 217.841 181.075 217.766 181.129 217.668C181.195 217.529 181.216 217.373 181.19 217.222C181.163 216.97 181.05 216.57 180.843 216.023C180.637 215.476 180.468 215.111 180.331 214.929C180.2 214.745 180.077 214.634 179.97 214.596C179.864 214.558 179.748 214.56 179.643 214.601Z" fill="#FF6341"/>
<path d="M135.851 244.261L134.956 244.599L133.685 241.231C133.471 241.664 133.163 242.044 132.785 242.345L132.479 241.534C132.718 241.329 132.919 241.086 133.075 240.813C133.26 240.527 133.358 240.194 133.358 239.854L134.085 239.58L135.851 244.261ZM139.113 243.03L138.218 243.368L136.947 240C136.733 240.432 136.428 240.811 136.052 241.112L135.746 240.301C135.984 240.096 136.185 239.852 136.342 239.58C136.526 239.295 136.622 238.963 136.619 238.623L137.346 238.349L139.113 243.03ZM142.375 241.799L141.479 242.137L140.208 238.769C139.994 239.201 139.689 239.58 139.313 239.881L139.007 239.07C139.245 238.865 139.446 238.621 139.603 238.349C139.786 238.063 139.884 237.731 139.886 237.391L140.608 237.118L142.375 241.799ZM143.457 236.043C143.907 235.873 144.321 235.901 144.698 236.127C145.14 236.396 145.531 236.971 145.865 237.855C146.197 238.737 146.285 239.428 146.127 239.929C145.997 240.341 145.704 240.633 145.254 240.803C145.044 240.888 144.817 240.923 144.591 240.905C144.366 240.886 144.147 240.814 143.955 240.695C143.546 240.451 143.176 239.881 142.838 238.986C142.507 238.108 142.421 237.419 142.579 236.919C142.708 236.507 143.001 236.215 143.457 236.043ZM143.737 236.784C143.63 236.823 143.54 236.899 143.483 236.998C143.416 237.136 143.397 237.292 143.427 237.442C143.455 237.695 143.569 238.097 143.775 238.644C143.982 239.191 144.151 239.556 144.282 239.74C144.414 239.924 144.536 240.034 144.643 240.071C144.751 240.107 144.868 240.103 144.974 240.062C145.079 240.022 145.166 239.948 145.222 239.851C145.283 239.711 145.303 239.557 145.277 239.406C145.251 239.155 145.137 238.755 144.931 238.208C144.724 237.661 144.555 237.296 144.424 237.112C144.292 236.927 144.17 236.817 144.063 236.779C143.957 236.743 143.842 236.745 143.737 236.784ZM147.077 234.677C147.527 234.507 147.941 234.535 148.317 234.761C148.765 235.028 149.156 235.603 149.49 236.487C149.823 237.369 149.91 238.06 149.746 238.563C149.617 238.975 149.324 239.267 148.873 239.437C148.665 239.523 148.438 239.557 148.213 239.538C147.988 239.519 147.771 239.447 147.58 239.327C147.171 239.083 146.796 238.515 146.458 237.62C146.127 236.742 146.04 236.053 146.199 235.553C146.334 235.139 146.626 234.847 147.077 234.677ZM147.356 235.417C147.251 235.456 147.162 235.531 147.108 235.63C147.042 235.768 147.021 235.924 147.047 236.075C147.074 236.329 147.189 236.731 147.395 237.278C147.602 237.825 147.77 238.19 147.902 238.374C148.039 238.556 148.155 238.668 148.268 238.703C148.374 238.739 148.489 238.737 148.594 238.696C148.699 238.658 148.788 238.582 148.842 238.484C148.908 238.346 148.928 238.19 148.897 238.04C148.876 237.786 148.762 237.386 148.556 236.839C148.349 236.292 148.175 235.929 148.044 235.745C147.912 235.56 147.79 235.45 147.683 235.412C147.577 235.375 147.461 235.377 147.356 235.417L147.356 235.417ZM150.696 233.31C151.147 233.14 151.56 233.168 151.937 233.395C152.385 233.661 152.775 234.237 153.109 235.121C153.442 236.003 153.529 236.694 153.371 237.194C153.236 237.609 152.943 237.901 152.493 238.071C152.284 238.156 152.058 238.191 151.833 238.172C151.608 238.153 151.391 238.08 151.199 237.961C150.791 237.717 150.415 237.149 150.077 236.254C149.746 235.376 149.66 234.687 149.823 234.185C149.953 233.773 150.246 233.481 150.696 233.31ZM150.976 234.051C150.87 234.09 150.782 234.166 150.727 234.263C150.661 234.401 150.641 234.557 150.671 234.707C150.694 234.963 150.813 235.362 151.02 235.909C151.226 236.456 151.395 236.822 151.527 237.006C151.658 237.19 151.78 237.299 151.887 237.337C151.993 237.373 152.108 237.37 152.213 237.33C152.32 237.29 152.41 237.215 152.467 237.116C152.528 236.977 152.547 236.822 152.522 236.672C152.496 236.42 152.382 236.021 152.175 235.474C151.969 234.926 151.8 234.561 151.669 234.377C151.537 234.193 151.415 234.083 151.302 234.047C151.196 234.009 151.081 234.01 150.976 234.051L150.976 234.051ZM156.864 236.33L155.969 236.668L154.698 233.301C154.483 233.734 154.176 234.114 153.798 234.414L153.492 233.603C153.73 233.399 153.932 233.155 154.087 232.882C154.273 232.597 154.371 232.264 154.37 231.924L155.097 231.649L156.864 236.33ZM160.126 235.099L159.231 235.437L157.96 232.07C157.745 232.503 157.438 232.883 157.059 233.183L156.753 232.372C156.992 232.168 157.194 231.924 157.349 231.651C157.535 231.366 157.633 231.033 157.632 230.693L158.359 230.418L160.126 235.099ZM163.387 233.868L162.492 234.206L161.221 230.839C161.007 231.27 160.702 231.649 160.326 231.95L160.02 231.14C160.258 230.934 160.459 230.691 160.616 230.419C160.8 230.134 160.896 229.801 160.893 229.462L161.62 229.187L163.387 233.868ZM166.649 232.637L165.753 232.975L164.483 229.608C164.269 230.039 163.963 230.418 163.588 230.719L163.282 229.909C163.519 229.703 163.721 229.46 163.878 229.188C164.061 228.901 164.159 228.569 164.161 228.229L164.882 227.957L166.649 232.637ZM167.731 226.881C168.182 226.711 168.595 226.739 168.972 226.965C169.42 227.232 169.805 227.81 170.139 228.694C170.472 229.576 170.559 230.267 170.401 230.767C170.271 231.18 169.978 231.472 169.528 231.641C169.318 231.727 169.091 231.762 168.865 231.743C168.64 231.724 168.422 231.653 168.229 231.534C167.82 231.289 167.45 230.719 167.112 229.824C166.781 228.947 166.695 228.258 166.853 227.757C166.988 227.343 167.275 227.053 167.731 226.881ZM168.011 227.622C167.904 227.662 167.814 227.738 167.757 227.836C167.695 227.976 167.676 228.13 167.701 228.28C167.729 228.534 167.843 228.935 168.049 229.482C168.256 230.029 168.425 230.394 168.556 230.579C168.688 230.763 168.81 230.872 168.922 230.907C169.028 230.944 169.144 230.942 169.248 230.9C169.353 230.861 169.44 230.786 169.496 230.689C169.563 230.551 169.582 230.395 169.552 230.244C169.53 229.991 169.411 229.593 169.205 229.046C168.998 228.499 168.829 228.134 168.698 227.95C168.566 227.766 168.444 227.655 168.337 227.617C168.231 227.581 168.115 227.583 168.01 227.622H168.011ZM171.351 225.515C171.801 225.345 172.215 225.373 172.592 225.599C173.039 225.866 173.43 226.441 173.764 227.325C174.097 228.207 174.184 228.899 174.02 229.401C173.891 229.813 173.598 230.106 173.148 230.275C172.939 230.361 172.712 230.396 172.487 230.377C172.262 230.358 172.045 230.285 171.854 230.166C171.445 229.921 171.07 229.353 170.732 228.458C170.401 227.581 170.314 226.892 170.473 226.391C170.608 225.977 170.9 225.685 171.351 225.515ZM171.63 226.256C171.525 226.294 171.436 226.37 171.382 226.468C171.316 226.607 171.295 226.763 171.321 226.914C171.348 227.168 171.463 227.569 171.669 228.116C171.876 228.663 172.045 229.028 172.181 229.211C172.313 229.395 172.43 229.507 172.542 229.542C172.648 229.579 172.764 229.576 172.868 229.535C172.973 229.497 173.062 229.422 173.116 229.323C173.182 229.184 173.203 229.029 173.177 228.877C173.15 228.626 173.037 228.226 172.83 227.679C172.624 227.132 172.455 226.766 172.318 226.584C172.187 226.4 172.064 226.29 171.957 226.252C171.851 226.214 171.735 226.216 171.63 226.256ZM177.513 228.537L176.623 228.873L175.352 225.505C175.136 225.937 174.829 226.317 174.452 226.619L174.146 225.808C174.384 225.604 174.586 225.36 174.742 225.087C174.925 224.801 175.023 224.468 175.025 224.128L175.747 223.856L177.513 228.537ZM180.775 227.306L179.885 227.642L178.614 224.274C178.399 224.707 178.092 225.087 177.713 225.388L177.407 224.577C177.646 224.373 177.848 224.129 178.003 223.856C178.189 223.571 178.287 223.238 178.286 222.897L179.008 222.625L180.775 227.306ZM181.857 221.55C182.308 221.38 182.721 221.408 183.098 221.634C183.546 221.901 183.936 222.476 184.27 223.36C184.603 224.242 184.69 224.933 184.527 225.436C184.397 225.848 184.104 226.14 183.654 226.31C183.445 226.396 183.219 226.431 182.994 226.412C182.769 226.393 182.552 226.32 182.36 226.2C181.952 225.956 181.576 225.388 181.238 224.493C180.907 223.615 180.821 222.926 180.979 222.426C181.114 222.012 181.407 221.72 181.857 221.55ZM182.137 222.291C182.031 222.329 181.943 222.404 181.888 222.503C181.822 222.642 181.801 222.797 181.827 222.949C181.855 223.202 181.969 223.604 182.176 224.151C182.382 224.698 182.551 225.063 182.682 225.247C182.819 225.429 182.936 225.541 183.048 225.576C183.154 225.613 183.27 225.61 183.374 225.569C183.48 225.531 183.568 225.456 183.623 225.357C183.688 225.218 183.71 225.062 183.683 224.911C183.657 224.659 183.538 224.262 183.331 223.715C183.125 223.168 182.956 222.803 182.824 222.618C182.693 222.434 182.571 222.324 182.463 222.286C182.357 222.249 182.242 222.251 182.137 222.291Z" fill="#FF6341"/>
<path fill-rule="evenodd" clip-rule="evenodd" d="M152.596 212.211C151.534 212.873 150.34 213.296 149.098 213.451C149.006 213.461 148.916 213.49 148.835 213.535C148.753 213.58 148.682 213.641 148.624 213.714C148.566 213.787 148.524 213.871 148.499 213.961C148.474 214.05 148.467 214.144 148.479 214.237C148.49 214.329 148.52 214.418 148.566 214.499C148.613 214.58 148.675 214.651 148.748 214.707C148.822 214.764 148.907 214.805 148.997 214.829C149.087 214.853 149.181 214.858 149.273 214.845C150.717 214.666 152.105 214.174 153.339 213.404C153.496 213.305 153.607 213.148 153.649 212.967C153.69 212.786 153.658 212.596 153.56 212.439C153.462 212.281 153.306 212.169 153.125 212.126C152.945 212.084 152.754 212.114 152.596 212.211H152.596ZM156.766 206.585C156.386 207.799 155.802 208.94 155.039 209.958C154.983 210.032 154.943 210.116 154.919 210.206C154.896 210.295 154.891 210.388 154.904 210.48C154.917 210.572 154.948 210.66 154.994 210.74C155.041 210.819 155.104 210.889 155.177 210.945C155.251 211 155.335 211.041 155.425 211.064C155.515 211.087 155.608 211.093 155.699 211.08C155.791 211.067 155.879 211.036 155.959 210.989C156.039 210.942 156.108 210.88 156.164 210.806C157.019 209.66 157.676 208.378 158.106 207.014C158.161 206.837 158.143 206.645 158.057 206.481C157.972 206.317 157.825 206.193 157.648 206.137C157.472 206.08 157.28 206.096 157.115 206.18C156.95 206.264 156.824 206.41 156.766 206.585ZM145.773 213.249C144.536 212.947 143.36 212.439 142.293 211.745C142.136 211.644 141.945 211.61 141.762 211.65C141.58 211.69 141.42 211.801 141.32 211.958C141.219 212.116 141.185 212.307 141.225 212.489C141.265 212.672 141.376 212.831 141.533 212.931C142.734 213.705 144.054 214.275 145.441 214.618C145.622 214.661 145.813 214.631 145.972 214.534C146.131 214.437 146.245 214.28 146.289 214.099C146.333 213.918 146.304 213.727 146.207 213.567C146.11 213.408 145.954 213.294 145.773 213.249V213.249ZM157.111 199.376C157.358 200.643 157.448 201.935 157.378 203.224C157.368 203.41 157.432 203.593 157.556 203.732C157.68 203.871 157.855 203.955 158.041 203.966C158.227 203.977 158.41 203.913 158.549 203.789C158.689 203.665 158.773 203.491 158.784 203.305C158.86 201.899 158.76 200.489 158.488 199.108C158.471 199.016 158.436 198.929 158.386 198.852C158.335 198.774 158.27 198.707 158.193 198.655C158.116 198.602 158.03 198.566 157.939 198.547C157.848 198.528 157.755 198.528 157.664 198.546C157.573 198.563 157.486 198.599 157.409 198.651C157.332 198.702 157.265 198.768 157.214 198.846C157.163 198.923 157.127 199.009 157.109 199.101C157.092 199.192 157.092 199.285 157.111 199.376H157.111ZM139.666 209.554C138.781 208.613 138.017 207.566 137.392 206.436C137.347 206.355 137.287 206.284 137.215 206.226C137.143 206.168 137.061 206.126 136.972 206.1C136.884 206.075 136.791 206.067 136.7 206.077C136.608 206.088 136.52 206.116 136.439 206.161C136.276 206.252 136.156 206.403 136.104 206.582C136.052 206.762 136.074 206.954 136.164 207.118C136.844 208.35 137.676 209.492 138.64 210.518C138.767 210.654 138.943 210.733 139.129 210.739C139.315 210.745 139.496 210.677 139.632 210.55C139.767 210.421 139.846 210.245 139.852 210.059C139.859 209.873 139.792 209.692 139.666 209.554ZM154.182 192.72C154.951 193.76 155.595 194.886 156.1 196.077C156.136 196.162 156.188 196.239 156.254 196.303C156.32 196.368 156.398 196.419 156.483 196.454C156.569 196.488 156.66 196.506 156.752 196.505C156.845 196.504 156.936 196.485 157.021 196.449C157.106 196.413 157.183 196.361 157.247 196.295C157.312 196.229 157.363 196.152 157.398 196.066C157.432 195.981 157.45 195.889 157.449 195.797C157.448 195.705 157.429 195.614 157.393 195.529C156.844 194.236 156.146 193.011 155.314 191.88C155.201 191.734 155.035 191.638 154.853 191.612C154.67 191.587 154.484 191.634 154.336 191.745C154.187 191.855 154.088 192.018 154.06 192.201C154.031 192.383 154.075 192.57 154.182 192.72H154.182ZM136.039 203.26C135.657 202.025 135.424 200.749 135.344 199.459C135.338 199.367 135.315 199.277 135.275 199.194C135.234 199.111 135.178 199.036 135.109 198.975C135.04 198.914 134.96 198.867 134.873 198.836C134.785 198.806 134.693 198.793 134.601 198.799C134.509 198.804 134.419 198.828 134.336 198.868C134.253 198.908 134.178 198.965 134.117 199.034C134.056 199.103 134.009 199.183 133.979 199.27C133.948 199.357 133.936 199.45 133.941 199.542C134.026 200.945 134.28 202.332 134.696 203.675C134.753 203.853 134.877 204.002 135.043 204.089C135.209 204.175 135.402 204.193 135.58 204.137C135.668 204.11 135.75 204.066 135.821 204.007C135.891 203.948 135.95 203.875 135.992 203.794C136.035 203.712 136.061 203.623 136.069 203.531C136.077 203.44 136.067 203.347 136.039 203.26L136.039 203.26ZM148.583 188.219C149.762 188.715 150.858 189.389 151.833 190.218C151.903 190.277 151.985 190.322 152.073 190.35C152.161 190.377 152.254 190.387 152.346 190.379C152.437 190.371 152.527 190.345 152.609 190.303C152.691 190.26 152.763 190.202 152.823 190.131C152.882 190.061 152.927 189.979 152.955 189.891C152.982 189.803 152.993 189.71 152.985 189.618C152.976 189.526 152.95 189.437 152.908 189.355C152.865 189.273 152.807 189.201 152.736 189.141C151.651 188.223 150.434 187.474 149.125 186.921C148.953 186.849 148.759 186.848 148.587 186.919C148.414 186.99 148.277 187.126 148.205 187.299C148.133 187.471 148.132 187.664 148.203 187.837C148.274 188.009 148.411 188.147 148.583 188.219V188.219ZM135.544 196.033C135.759 194.775 136.169 193.557 136.758 192.425C136.802 192.344 136.829 192.254 136.838 192.162C136.848 192.069 136.838 191.976 136.811 191.887C136.784 191.799 136.74 191.716 136.681 191.645C136.622 191.573 136.549 191.514 136.467 191.471C136.385 191.427 136.296 191.401 136.203 191.392C136.111 191.384 136.018 191.394 135.929 191.421C135.841 191.449 135.759 191.494 135.687 191.553C135.616 191.613 135.558 191.686 135.515 191.768C134.859 193.03 134.401 194.385 134.156 195.786C134.123 195.97 134.165 196.159 134.273 196.312C134.38 196.465 134.543 196.569 134.727 196.602C134.911 196.635 135.1 196.593 135.253 196.486C135.406 196.38 135.511 196.216 135.544 196.033H135.544ZM141.545 188.01L141.647 187.971C142.82 187.531 144.074 187.348 145.323 187.434C145.508 187.443 145.689 187.38 145.827 187.257C145.965 187.134 146.05 186.962 146.062 186.777C146.074 186.593 146.013 186.411 145.892 186.271C145.771 186.131 145.599 186.045 145.415 186.03C144.011 185.934 142.603 186.131 141.279 186.608L141.15 186.655C139.918 187.121 138.789 187.823 137.826 188.723C137.689 188.85 137.609 189.027 137.603 189.213C137.596 189.399 137.664 189.581 137.791 189.717C137.918 189.854 138.094 189.934 138.281 189.94C138.467 189.947 138.649 189.879 138.785 189.752C139.587 189.003 140.524 188.411 141.545 188.01L141.545 188.01ZM149.545 207.149C149.361 207.243 149.172 207.326 148.979 207.399C146.896 208.186 144.604 207.632 142.834 206.181C142.763 206.123 142.681 206.079 142.593 206.052C142.505 206.025 142.412 206.016 142.321 206.025C142.229 206.034 142.14 206.061 142.059 206.105C141.977 206.148 141.906 206.207 141.847 206.279C141.789 206.35 141.745 206.432 141.718 206.52C141.691 206.608 141.682 206.701 141.691 206.792C141.7 206.884 141.728 206.973 141.771 207.054C141.814 207.135 141.873 207.207 141.945 207.266C144.107 209.045 146.922 209.679 149.475 208.715C149.717 208.624 149.953 208.52 150.182 208.402C150.266 208.361 150.34 208.304 150.401 208.234C150.462 208.163 150.508 208.082 150.538 207.994C150.567 207.906 150.578 207.812 150.571 207.72C150.564 207.627 150.539 207.537 150.497 207.454C150.455 207.371 150.397 207.297 150.326 207.237C150.255 207.177 150.173 207.131 150.085 207.103C149.996 207.075 149.903 207.064 149.81 207.072C149.718 207.08 149.628 207.106 149.545 207.149V207.149ZM152.214 197.915C152.256 198.013 152.294 198.114 152.332 198.215C153.234 200.605 152.991 203.114 151.856 204.973C151.808 205.052 151.776 205.139 151.761 205.231C151.747 205.322 151.751 205.415 151.773 205.505C151.795 205.595 151.834 205.679 151.889 205.754C151.943 205.828 152.012 205.892 152.091 205.94C152.169 205.988 152.257 206.02 152.348 206.034C152.44 206.048 152.533 206.044 152.623 206.023C152.712 206.001 152.797 205.961 152.872 205.907C152.946 205.852 153.009 205.784 153.057 205.705C154.398 203.508 154.715 200.544 153.649 197.718C153.605 197.601 153.561 197.484 153.509 197.371C153.473 197.285 153.421 197.207 153.356 197.142C153.291 197.076 153.213 197.024 153.127 196.989C153.042 196.954 152.95 196.936 152.857 196.936C152.765 196.936 152.673 196.955 152.587 196.991C152.502 197.027 152.425 197.079 152.36 197.145C152.295 197.211 152.243 197.289 152.209 197.375C152.174 197.461 152.156 197.553 152.157 197.645C152.158 197.738 152.178 197.829 152.214 197.915ZM140.783 203.607C140.634 203.321 140.503 203.025 140.39 202.723C139.574 200.563 139.698 198.306 140.564 196.519C140.646 196.351 140.657 196.157 140.596 195.981C140.535 195.805 140.406 195.66 140.238 195.579C140.07 195.497 139.877 195.486 139.7 195.547C139.524 195.608 139.379 195.737 139.298 195.905C138.275 198.013 138.112 200.673 139.073 203.22C139.205 203.571 139.358 203.915 139.53 204.249C139.616 204.413 139.763 204.536 139.94 204.592C140.117 204.648 140.308 204.633 140.473 204.548C140.638 204.464 140.764 204.318 140.821 204.141C140.879 203.965 140.865 203.773 140.783 203.607ZM143.672 193.567L143.747 193.537C146.021 192.679 148.548 193.418 150.363 195.184C150.497 195.312 150.677 195.383 150.863 195.379C151.048 195.376 151.225 195.299 151.355 195.166C151.484 195.033 151.556 194.854 151.554 194.668C151.552 194.483 151.477 194.305 151.345 194.175C149.159 192.053 146.124 191.2 143.379 192.174L143.25 192.221C142.764 192.404 142.3 192.641 141.867 192.928C141.79 192.979 141.724 193.045 141.672 193.121C141.621 193.198 141.585 193.284 141.566 193.375C141.548 193.465 141.548 193.559 141.566 193.649C141.584 193.74 141.619 193.826 141.67 193.903C141.721 193.98 141.787 194.047 141.864 194.098C141.941 194.15 142.027 194.186 142.117 194.204C142.208 194.222 142.301 194.222 142.392 194.204C142.483 194.187 142.569 194.151 142.646 194.1C142.968 193.887 143.312 193.708 143.671 193.566L143.672 193.567ZM147.731 200.417C147.35 200.627 146.954 200.809 146.547 200.962C146.042 201.155 145.519 201.301 144.987 201.396C144.896 201.412 144.809 201.445 144.731 201.494C144.653 201.543 144.585 201.607 144.531 201.683C144.478 201.758 144.44 201.843 144.419 201.933C144.399 202.023 144.396 202.116 144.412 202.207C144.427 202.299 144.461 202.386 144.51 202.464C144.559 202.542 144.623 202.61 144.698 202.663C144.774 202.717 144.859 202.755 144.949 202.775C145.039 202.796 145.132 202.798 145.223 202.783C145.844 202.672 146.454 202.502 147.043 202.277C147.515 202.1 147.973 201.889 148.414 201.646C148.577 201.556 148.697 201.404 148.749 201.225C148.8 201.045 148.778 200.853 148.688 200.69C148.597 200.527 148.445 200.407 148.266 200.355C148.087 200.304 147.895 200.326 147.732 200.417L147.731 200.417ZM146.012 200.039L146.175 199.976C147.182 199.596 148.137 199.416 148.776 199.476C148.868 199.485 148.961 199.476 149.05 199.45C149.139 199.423 149.222 199.379 149.294 199.32C149.366 199.261 149.425 199.188 149.469 199.106C149.512 199.024 149.539 198.934 149.548 198.842C149.556 198.749 149.547 198.656 149.519 198.567C149.491 198.478 149.447 198.396 149.387 198.325C149.327 198.254 149.254 198.195 149.172 198.152C149.089 198.109 148.999 198.083 148.907 198.075C148.138 198.004 146.999 198.178 145.795 198.617L145.678 198.661C144.63 199.056 143.746 199.57 143.17 200.066C143.1 200.126 143.041 200.199 142.999 200.282C142.957 200.365 142.931 200.455 142.924 200.548C142.917 200.64 142.928 200.733 142.957 200.822C142.986 200.91 143.032 200.992 143.093 201.062C143.153 201.132 143.227 201.19 143.31 201.231C143.394 201.273 143.484 201.298 143.577 201.304C143.669 201.31 143.762 201.298 143.85 201.269C143.938 201.239 144.02 201.192 144.089 201.131C144.535 200.746 145.215 200.356 146.012 200.039Z" fill="#6562F9"/>
<path fill-rule="evenodd" clip-rule="evenodd" d="M100.048 101.552C86.2379 110.081 55.6384 136.861 60.0481 157.106C66.4222 186.353 96.6331 217.203 96.6331 217.203C97.7923 227.318 106.433 229.643 108.246 230.293C109.812 230.854 103.68 216.639 104.342 215.5C106.471 211.84 110.662 217.378 111.634 213.8C112.249 211.541 106.892 207.402 102.129 207.93C102.129 207.93 80.6089 167.646 86.7303 149.559C92.8564 131.472 135.919 132.825 138.871 99.4083C139.66 90.4777 136.126 79.273 100.048 101.552Z" fill="#FB9C9A"/>
<path fill-rule="evenodd" clip-rule="evenodd" d="M115.598 186.084C131.984 166.091 158.268 150.367 161.195 122.394C163.249 102.768 150.098 88.5569 132.692 81.6857C105.587 70.9888 70.7781 73.4906 45.9824 88.9641C10.38 111.182 7.67805 159.454 30.8518 191.636C38.0336 201.608 47.519 210.984 59.5456 214.669C68.5296 217.422 85.215 218.146 90.9687 208.374C92.8677 205.151 90.791 200.928 93.1597 197.996C94.9578 195.765 98.0725 195.945 100.292 194.38C103.935 191.822 103.41 185.41 102.06 181.728L115.598 186.084Z" fill="url(#paint5_linear_9_6120)"/>
<path fill-rule="evenodd" clip-rule="evenodd" d="M340.043 77.2175C340.043 77.2175 322.951 72.1861 310.884 59.173C297.33 71.3616 279.681 77.2175 279.681 77.2175V104.704C279.681 110.072 281.049 115.351 283.656 120.044C286.263 124.736 290.024 128.687 294.582 131.522C295.076 131.833 295.574 132.14 296.064 132.447C300.101 134.958 304.754 136.301 309.508 136.328C314.262 136.354 318.93 135.062 322.994 132.596C328.198 129.439 332.501 124.993 335.487 119.689C338.473 114.385 340.042 108.4 340.043 102.313V77.2175Z" fill="#152039"/>
<path fill-rule="evenodd" clip-rule="evenodd" d="M332.049 83.1635C332.049 83.1635 319.484 79.4462 310.613 69.8317C300.649 78.837 287.674 83.1635 287.674 83.1635V103.509C287.674 107.465 288.68 111.356 290.597 114.817C292.515 118.278 295.281 121.194 298.635 123.292C298.992 123.513 299.349 123.736 299.703 123.959C302.672 125.816 306.1 126.809 309.601 126.829C313.103 126.848 316.542 125.893 319.531 124.07H319.534C323.356 121.738 326.515 118.463 328.706 114.56C330.898 110.656 332.049 106.254 332.049 101.778V83.1635Z" fill="white"/>
<path fill-rule="evenodd" clip-rule="evenodd" d="M297.407 104.81L305.71 115.934C306.404 116.86 307.461 117.382 308.56 117.34C309.116 117.314 309.657 117.153 310.137 116.872C310.618 116.591 311.023 116.198 311.318 115.726L326.826 91.7207C327.925 90.0157 327.533 87.6707 325.943 86.4868C324.354 85.303 322.177 85.728 321.071 87.4331L308.238 107.299L302.868 100.105C301.664 98.4859 299.459 98.2249 297.953 99.5231C296.441 100.821 296.203 103.19 297.407 104.81Z" fill="#152039"/>
<path fill-rule="evenodd" clip-rule="evenodd" d="M276.708 104.298C277.212 101.455 278.828 98.5494 279.783 98.2158C286.159 95.9982 289.534 102.371 282.962 104.347C279.783 105.304 276.598 113.511 276.598 113.511C276.598 113.511 276.327 106.478 276.708 104.298Z" fill="#FB9C9A"/>
<path fill-rule="evenodd" clip-rule="evenodd" d="M158.87 52.5682C150.419 52.5682 144.258 60.3276 145.46 70.8601C146.313 78.324 155.745 86.3495 163.475 87.1065C169.847 87.7298 172.341 81.2645 172.341 70.6642C172.341 60.0638 167.316 52.5682 158.87 52.5682Z" fill="url(#paint6_linear_9_6120)"/>
<path fill-rule="evenodd" clip-rule="evenodd" d="M162.099 79.9904C162.26 79.2538 162.882 78.6003 163.391 78.0788C163.84 77.6201 164.309 77.1749 164.864 76.8501C165.194 76.6431 165.553 76.4856 165.929 76.3828C168.119 75.8564 169.163 77.7125 170.864 78.6131C171.52 78.9613 172.223 79.0235 172.953 79.0497C175.028 82.2145 171.346 85.6784 168.647 86.8073C167.301 87.3717 163.786 91.8391 159.501 86.7035C158.53 85.5425 153.267 85.8939 154.914 79.9924C155.343 78.4483 154.72 76.4812 154.606 74.8916C154.439 72.5609 154.626 69.85 152.35 68.4209C151.991 68.1975 151.609 68.012 151.212 67.8672C150.93 67.7634 150.609 67.5411 150.341 67.6676C148.366 68.5856 151.613 72.2 146.746 73.6851C147.06 75.2981 145.513 76.4303 144.094 76.6446C141.871 76.9807 139.487 76.0158 138.014 74.3272C136.655 72.7671 135.008 70.3386 134.727 68.3239C134.385 65.8571 134.506 60.5052 136.796 57.3375C138.583 54.8642 141.222 52.9425 144.369 53.1353C144.335 52.5106 144.75 51.8872 145.072 51.3873C145.828 50.2126 146.784 49.1798 147.897 48.336C149.685 46.9969 151.894 45.9999 154.138 45.8311C157.144 45.6049 160.358 47.2694 161.664 50.0388C162.233 49.4281 163.096 49.2319 163.887 49.0759C165.822 48.6936 167.643 48.9353 169.364 49.9297C173.093 52.0877 174.379 56.2946 172.805 60.1914C172.243 60.01 171.587 60.0059 171.004 59.9216C169.598 59.7207 174.426 62.7092 164.623 64.4338C162.072 64.8824 158.289 62.9327 156.448 65.3311C155.242 66.8958 156.08 68.7632 156.327 70.4831C156.548 72.0218 156.434 73.5946 156.722 75.1232C157.131 77.298 158.798 79.9624 161.135 80.45L162.099 79.9904Z" fill="url(#paint7_linear_9_6120)"/>
<defs>
<linearGradient id="paint0_linear_9_6120" x1="272.68" y1="162.248" x2="118.925" y2="288.596" gradientUnits="userSpaceOnUse">
<stop stop-color="#E3DBF9"/>
<stop offset="0.54" stop-color="#CCBBFA"/>
<stop offset="1" stop-color="#7848FC"/>
</linearGradient>
<linearGradient id="paint1_linear_9_6120" x1="217.796" y1="148.809" x2="168.511" y2="228.755" gradientUnits="userSpaceOnUse">
<stop stop-color="#E3DBF9"/>
<stop offset="0.54" stop-color="#CCBBFA"/>
<stop offset="1" stop-color="#7848FC"/>
</linearGradient>
<linearGradient id="paint2_linear_9_6120" x1="22.405" y1="123.094" x2="156.492" y2="233.215" gradientUnits="userSpaceOnUse">
<stop stop-color="#E3DBF9"/>
<stop offset="0.56" stop-color="#CDBDFA"/>
<stop offset="1" stop-color="#7848FC"/>
</linearGradient>
<linearGradient id="paint3_linear_9_6120" x1="142.389" y1="207.114" x2="281.14" y2="204.323" gradientUnits="userSpaceOnUse">
<stop stop-color="#E86C2E"/>
<stop offset="1" stop-color="#FF6341"/>
</linearGradient>
<linearGradient id="paint4_linear_9_6120" x1="143.54" y1="155.121" x2="135.814" y2="228.195" gradientUnits="userSpaceOnUse">
<stop stop-color="#E3E3FE"/>
<stop offset="0.47" stop-color="#BBBBFE"/>
<stop offset="1" stop-color="#4F4FFF"/>
</linearGradient>
<linearGradient id="paint5_linear_9_6120" x1="15.8657" y1="216.464" x2="164.579" y2="213.043" gradientUnits="userSpaceOnUse">
<stop stop-color="#E86C2E"/>
<stop offset="1" stop-color="#FF6341"/>
</linearGradient>
<linearGradient id="paint6_linear_9_6120" x1="169.332" y1="55.6526" x2="146.428" y2="90.6539" gradientUnits="userSpaceOnUse">
<stop stop-color="#FB9C9A"/>
<stop offset="0.64" stop-color="#FC8886"/>
<stop offset="0.84" stop-color="#FD5450"/>
<stop offset="1" stop-color="#FF1712"/>
</linearGradient>
<linearGradient id="paint7_linear_9_6120" x1="162.51" y1="87.9204" x2="148.317" y2="43.0053" gradientUnits="userSpaceOnUse">
<stop/>
<stop offset="0.53" stop-color="#121212"/>
<stop offset="1" stop-color="#4D4D4D"/>
</linearGradient>
</defs>
</svg>
